<svg width="36" height="36" viewBox="0 0 36 36" fill="none" xmlns="http://www.w3.org/2000/svg">
<path d="M28.5 4.5H22.23C21.6 2.76 19.95 1.5 18 1.5C16.05 1.5 14.4 2.76 13.77 4.5H7.5C5.85 4.5 4.5 5.85 4.5 7.5V28.5C4.5 30.15 5.85 31.5 7.5 31.5H28.5C30.15 31.5 31.5 30.15 31.5 28.5V7.5C31.5 5.85 30.15 4.5 28.5 4.5ZM18 4.5C18.825 4.5 19.5 5.175 19.5 6C19.5 6.825 18.825 7.5 18 7.5C17.175 7.5 16.5 6.825 16.5 6C16.5 5.175 17.175 4.5 18 4.5ZM18 10.5C20.49 10.5 22.5 12.51 22.5 15C22.5 17.49 20.49 19.5 18 19.5C15.51 19.5 13.5 17.49 13.5 15C13.5 12.51 15.51 10.5 18 10.5ZM27 28.5H9V26.4C9 23.4 15 21.75 18 21.75C21 21.75 27 23.4 27 26.4V28.5Z" fill="#C9C344"/>
</svg>
