<svg width="36" height="36" viewBox="0 0 36 36" fill="none" xmlns="http://www.w3.org/2000/svg">
<path d="M19.5 3.07495V7.61995C24.585 8.35495 28.5 12.705 28.5 18C28.5 19.35 28.23 20.625 27.78 21.81L31.68 24.1049C32.52 22.245 33 20.175 33 18C33 10.23 27.075 3.82495 19.5 3.07495ZM18 28.5C12.195 28.5 7.5 23.805 7.5 18C7.5 12.705 11.415 8.35495 16.5 7.61995V3.07495C8.91 3.82495 3 10.215 3 18C3 26.28 9.705 33 17.985 33C22.95 33 27.345 30.585 30.075 26.865L26.175 24.57C24.255 26.9699 21.315 28.5 18 28.5Z" fill="#D866BF"/>
</svg>
