<svg width="42" height="42" viewBox="0 0 42 42" fill="none" xmlns="http://www.w3.org/2000/svg">
<g opacity="0.6">
<circle cx="21" cy="21" r="20" stroke="white" stroke-width="2"/>
<path d="M20.3422 14.6866C20.3422 14.1064 20.8154 13.636 21.3991 13.636C21.9829 13.636 22.456 14.1064 22.456 14.6866V27.0251C22.456 27.6054 21.9829 28.0758 21.3991 28.0758C20.8154 28.0758 20.3422 27.6054 20.3422 27.0251V14.6866Z" fill="white"/>
<path d="M15.0035 23.6074C14.5351 23.2611 14.4377 22.603 14.786 22.1373C15.1343 21.6717 15.7963 21.5749 16.2648 21.9211L22.0297 26.182C22.4982 26.5282 22.5956 27.1864 22.2473 27.652C21.899 28.1177 21.2369 28.2145 20.7685 27.8683L15.0035 23.6074Z" fill="white"/>
<path d="M26.5335 21.9211C27.0019 21.5749 27.664 21.6717 28.0122 22.1373C28.3605 22.603 28.2631 23.2611 27.7947 23.6074L22.0297 27.8683C21.5613 28.2145 20.8992 28.1177 20.5509 27.652C20.2027 27.1864 20.3001 26.5282 20.7685 26.182L26.5335 21.9211Z" fill="white"/>
</g>
</svg>
