<svg width="36" height="36" viewBox="0 0 36 36" fill="none" xmlns="http://www.w3.org/2000/svg">
<path d="M30.75 16.5H28.5V10.5C28.5 8.85 27.15 7.5 25.5 7.5H19.5V5.25C19.5 3.18 17.82 1.5 15.75 1.5C13.68 1.5 12 3.18 12 5.25V7.5H6C4.35 7.5 3.015 8.85 3.015 10.5V16.2H5.25C7.485 16.2 9.3 18.015 9.3 20.25C9.3 22.485 7.485 24.3 5.25 24.3H3V30C3 31.65 4.35 33 6 33H11.7V30.75C11.7 28.515 13.515 26.7 15.75 26.7C17.985 26.7 19.8 28.515 19.8 30.75V33H25.5C27.15 33 28.5 31.65 28.5 30V24H30.75C32.82 24 34.5 22.32 34.5 20.25C34.5 18.18 32.82 16.5 30.75 16.5Z" fill="#44A9C9"/>
</svg>
