<?xml version="1.0" encoding="utf-8"?>
<!-- Generator: Adobe Illustrator 24.1.0, SVG Export Plug-In . SVG Version: 6.00 Build 0)  -->
<svg version="1.1" id="Layer_1" xmlns="http://www.w3.org/2000/svg" xmlns:xlink="http://www.w3.org/1999/xlink" x="0px" y="0px"
	 viewBox="0 0 800 800" style="enable-background:new 0 0 800 800;" xml:space="preserve">
<style type="text/css">
	.st0{fill:#FFFFFF;}
	.st1{fill:#F2CCD1;}
	.st2{fill:#E4E9ED;}
	.st3{fill:#B11F1F;}
	.st4{fill:#D02A2A;}
	.st5{fill:#DFDFDF;}
	.st6{fill:#AEAEAE;}
	.st7{fill:#F3F3F3;}
	.st8{fill:none;}
	.st9{fill:none;stroke:#000000;stroke-width:10;stroke-linecap:round;stroke-linejoin:round;stroke-miterlimit:10;}
	.st10{opacity:0.13;fill:#FFFFFD;}
	.st11{fill:#DADADA;}
	.st12{fill:#9F5D6B;}
	.st13{fill:#DFA9B2;}
	.st14{fill:#6D7172;}
	.st15{fill:#C3C3C3;}
	.st16{fill:#D2D5DC;}
	.st17{fill:#F6F6F6;}
	.st18{fill:#B3E6F8;}
	.st19{fill:#F1F1F1;}
	.st20{fill:#B2E1FF;}
	.st21{opacity:0.49;fill:#DBE6EE;}
</style>
<g>
	<g>
		<path class="st0" d="M542.2642822,485.0523987c-5.6162109,0.1669922-10.9960938,2.6777344-14.7587891,6.8876953
			c-9.3984375,10.5146484-12.4980469,21.7792664-9.2128906,33.4823914c0.7460938,2.6591797-0.8046875,5.4189453-3.4628906,6.1660156
			c-2.6601562,0.7421875-5.4189453-0.8056641-6.1660156-3.4628906c-3.3325195-11.8752441-1.534668-23.6371765,5.1416016-34.4965515
			c-13.4057617-0.232666-37.7241211-1.5715332-58.8769531-7.6589355
			c-11.8037109,6.9707031-28.9697266,12.4916992-53.734375,12.4924316c-11.1269531,0-23.7841797-1.1142578-38.1816406-3.7109375
			c-2.7177734-0.4902344-4.5234375-3.0908203-4.0332031-5.8085938s3.09375-4.5224609,5.8085938-4.0332031
			c24.7363281,4.4638672,69.9306641,8.4824219,94.7167969-14.734375
			c14.9941406-14.0439453,26.0087891-36.0507812,16.8896484-49.1738281
			c-6.9453125-9.9951172-24.3515625-9.6865234-45.4248047,0.8017578
			c-36.1660156,18.0039062-63.7490234,26.9941406-77.0039062,31.3154297
			c-3.1865234,1.0390625-5.7041016,1.859375-6.9482422,2.3603516c-3.7880859,1.5253906-6.3515625,2.7548828-7.5458984,3.3662109
			c-0.2294922,0.1640625-0.4804688,0.3203125-0.7558594,0.4648438l0.0019531,0.0048828l-0.2148438,0.1025391
			c-0.0136719,0.0068359-0.0273438,0.0136719-0.0410156,0.0195312c-0.0136719,0.0068359-0.0283203,0.0136719-0.0429688,0.0205078
			l-1.859375,0.8896484l-4.6904297,2.4160156c-2.4570312,1.2666016-5.4707031,0.3007812-6.734375-2.1542969
			c-1.265625-2.4550781-0.3007812-5.4697266,2.1542969-6.734375l4.7558594-2.4501953
			c0.0439453-0.0234375,0.0878906-0.0449219,0.1328125-0.0664062l1.5439453-0.7382812
			c1.7148438-1.0908203,4.6083984-2.4228516,9.5605469-4.4169922c1.5585938-0.6279297,4.0859375-1.4511719,7.5839844-2.5917969
			c13.0283203-4.2470703,40.1396484-13.0839844,75.6464844-30.7597656
			c22.0263672-10.9648438,40.8647461-12.0766602,52.3442383-3.5175781
			c32.3076172-18.1911621,44.9477539-41.1245117,44.3540039-61.6269531
			c-0.6884766-23.7373047-7.4013672-37.7148438-13.1728516-47.2402344
			c-9.1621094-15.1220703-16.0380859-29.1689453-21.0205078-42.9443359
			c-0.5576172-1.5420074-1.1894531-3.1777496-1.9306641-5.0009918c-0.7841797-1.9287109-0.2910156-4.140625,1.2373047-5.5537109
			c0.5976562-0.5527344,1.1894531-1.1181641,1.7714844-1.7021484c19.3583984-19.4277344,21.8027344-48.4941406,5.4462891-64.7919922
			c-16.3574219-16.296875-45.4150391-13.7519531-64.7734375,5.6767578
			c-0.3183594,0.3203125-0.6259766,0.6484375-0.9345703,0.9775391l-0.2304688,0.2451172
			c-1.4287109,1.5166016-3.6435547,1.9873047-5.5664062,1.1894531c-23.1386719-9.6503906-50.9746094-13.1230469-78.375-9.7841797
			c-27.4052734,3.3417969-53.5908203,13.4003906-73.7314453,28.3251953
			c-1.6748047,1.2402344-3.9433594,1.3134766-5.6923828,0.1806641l-0.2421875-0.1572266
			c-0.3896484-0.2519531-0.7783203-0.5058594-1.1787109-0.7480469
			c-23.4619293-14.2080078-52.2783356-9.7021484-64.2402496,10.0488281
			c-5.7177734,9.4404297-6.7773438,20.984375-2.984375,32.5039062
			c3.8837891,11.7978668,12.3496094,22.1269684,23.8369141,29.0849762c0.7041016,0.4257812,1.4140625,0.8320312,2.1279297,1.2255859
			c1.8222656,1.0048828,2.8320312,3.0332031,2.5341797,5.0927734c-0.2822266,1.9599609-0.5019531,3.6992188-0.671875,5.3183594
			c-1.5292969,14.5751953-4.8291016,29.8623047-10.0898438,46.7382812c-3.3144531,10.6318359-6.4726562,25.8125-1.4375,49.0205078
			c6.0019531,27.6669922,35.1210938,47.2041016,79.9072418,53.6201172l6.7509766,0.3632812
			c2.1933594,0.1181641,4.0517578,1.6533203,4.5830078,3.7841797s-0.390625,4.359375-2.2714844,5.4921875
			c-3.4609375,2.088623-8.2431641,5.5285645-11.5097656,8.6870117c-1.2246094,1.4584961-2.4262695,3.0004883-3.6049805,4.626709
			c-0.0961914,0.1538086-0.2021484,0.2973633-0.3125,0.4375c-2.8662109,4.0065918-5.5898438,8.5197754-8.1362305,13.6130371
			c-26.2441559,52.4950867-23.7588043,78.9491882-21.9433594,98.2646179
			c1.0771484,11.4716797,8.6328125,37.8955078,13.5751953,51.7900391c2.2441406,6.3125,7.5,10.9169922,14.0585938,12.3193359
			l17.8037109,3.8056641c1.0400391,0.2207031,4.2001953,0.8994141,9.3583984-3.7236328
			c5.4916992-4.9211426,9.875-9.1520996,14.3452148-14.4816895c-18.1816406-5.7570801-26.4384766-15.9772949-26.8510742-16.5007324
			c-1.7099609-2.1679688-1.3369141-5.3125,0.8320312-7.0214844c2.1611328-1.703125,5.2919922-1.3408203,7.0048828,0.8105469
			c0.1933594,0.2353516,10.4775391,12.5449219,33.6259766,15.7802734
			c23.2509766,3.2490234,36.5332031-5.8662109,36.6660156-5.9580078c2.2490234-1.5830078,5.3642578-1.0595703,6.9609375,1.1777344
			c1.5957031,2.2392578,1.0976562,5.3369141-1.1308594,6.9472656c-0.5463867,0.394043-11.5351562,8.1362305-31.0224609,8.5241699
			c0.3588867,6.8806152,2.1289062,12.5488281,3.6796875,16.2805176c1.2900391,3.1025391,4.1992188,5.171875,7.5927734,5.4003906
			l18.1650391,1.2216797c6.6962891,0.4423828,13.0087891-2.5371094,16.8974609-7.9921875
			c7.7753906-10.9042969,21.6474609-30.7871094,27.1894531-41.4375c0.0019531-0.0048828,0.0048828-0.0087891,0.0068359-0.0126953
			l0.8300781-1.5908203c4.8642578-9.296875,12.0205078-22.9975586,15.2695312-43.3999023
			c-0.003418-0.3642578,0.0244141-0.7329102,0.1044922-1.1040039c0.0869141-0.4033203,0.1694336-0.8164062,0.2475586-1.237793
			c0.644043-4.5732422,1.0893555-9.4699707,1.2714844-14.7175293c0.2275391-10.3056641-0.5253906-19.972168-0.5375977-20.1208496
			c-0.1542969-1.9384766,0.828125-3.7919922,2.5205078-4.75c1.6904297-0.9599609,3.7861328-0.8496094,5.3691406,0.28125
			c22.7382812,16.2324219,55.5136719,33.1914062,82.5527344,21.7900391
			c14.8427734-6.2587891,25.4316406-17.2128906,27.6357422-28.5878601c1.2861328-6.6376953-0.4951172-12.7646484-5.0136719-17.25
			C552.635376,486.8424377,547.62854,484.8912659,542.2642822,485.0523987z"/>
	</g>
	<g>
		<path class="st2" d="M314.0621338,625.0704346c-2.9726562-2.8037109-7.4155273-4.4567871-11.3461914-5.1748047
			c-4.7446289-0.8666992-9.578125-0.3300781-13.9360352,1.7646484c-1.6518555,0.7939453-0.3901367,2.9890137,1.1557617,2.7416992
			c0.0283203-0.0046387,0.0449219-0.0073242,0.0634766-0.0102539c0.0029297-0.0004883,0.0024414-0.0002441,0.0073242-0.0007324
			c0.3481445-0.0410156,0.6962891-0.0778809,1.0454102-0.1074219c1.1606445-0.0979004,2.3271484-0.1325684,3.4912109-0.1108398
			c3.2114258,0.0595703,6.3535156,0.6125488,9.3608398,1.751709c3.7226562,1.4101562,7.3222656,3.4572754,10.5771484,5.7487793
			c0.9038086,0.6362305,2.3383789-0.204834,2.2568359-1.295166c-0.144043-1.9296875-1.1308594-3.6662598-2.4106445-5.0732422
			C314.2418213,625.2113037,314.1529541,625.1346436,314.0621338,625.0704346z"/>
		<path class="st2" d="M394.5040283,637.0860596c-2.9282227-3.4360352-6.9794922-5.8139648-11.3383789-6.9353027
			c-4.074707-1.048584-9.1923828-1.4602051-13.2050781,0.0812988c-0.0712891,0.0275879-0.1318359,0.0639648-0.1948242,0.0981445
			c-0.0546875,0.0175781-0.1083984,0.0290527-0.1635742,0.0532227c-1.5664062,0.6875-3.140625,1.8664551-3.9628906,3.4118652
			c-0.6386719,1.2011719,0.4101562,2.4604492,1.6943359,2.2036133c8.5786133-1.7165527,17.8100586-1.4455566,25.3525391,3.4431152
			C394.1939697,640.4190674,395.553833,638.317749,394.5040283,637.0860596z"/>
	</g>
	
		<ellipse transform="matrix(0.0757513 -0.9971268 0.9971268 0.0757513 -17.6269016 582.3779907)" cx="305.3360901" cy="300.6973877" rx="22.6581612" ry="14.1301517"/>
	
		<ellipse transform="matrix(0.0757513 -0.9971268 0.9971268 0.0757513 -2.1748884 572.1208496)" class="st0" cx="307.5291443" cy="287.2336121" rx="6.6364584" ry="5.0749388"/>
	
		<ellipse transform="matrix(0.9581431 -0.2862896 0.2862896 0.9581431 -65.0649033 134.4455719)" cx="427.2532043" cy="289.7359314" rx="14.1301517" ry="22.6581612"/>
	
		<ellipse transform="matrix(0.9581431 -0.2862896 0.2862896 0.9581431 -61.3012581 133.2957153)" class="st0" cx="425.2026672" cy="276.289856" rx="5.0749388" ry="6.6364584"/>
	<g>
		<path class="st1" d="M254.4342804,216.6915741l-0.2848206-0.1654816
			c-15.2582245-8.4349518-33.5791016-4.6153564-40.8394012,8.5163727
			c-7.2598267,13.1316681-0.7519531,30.6782074,14.5068817,39.11409c0.4989319,0.2756348,1.0004578,0.5361938,1.5050964,0.7860413
			c0.2659607,0.131897,0.5610657,0.1800232,0.8475189,0.1451111c0.1977539-0.0241089,0.3916931-0.0875854,0.5690308-0.1903687
			c0.4351959-0.2512817,0.7150574-0.7035217,0.7463837-1.2051392c0.5282745-8.4462738,3.2953033-17.411911,8.0027466-25.9263916
			c4.0774994-7.3752136,9.3197479-13.8107147,15.1593628-18.6101837c0.3818359-0.3136444,0.5848083-0.7953644,0.5419769-1.2879486
			C255.1467743,217.3755341,254.8643799,216.9352722,254.4342804,216.6915741z"/>
		<path class="st1" d="M484.1976929,194.7434998c-10.2032471-11.0034637-28.9047852-10.3106842-41.6906433,1.5451965
			l-0.2354431,0.2274323c-0.3589783,0.3398743-0.5274048,0.8345947-0.4501648,1.3229828
			c0.0767212,0.4879456,0.3894653,0.9067993,0.8355103,1.1200104c6.8226624,3.2569885,13.4573364,8.2447357,19.1860962,14.424118
			c6.6149292,7.1338348,11.4546204,15.1717377,13.9964905,23.2442932c0.1508484,0.4789124,0.5311279,0.8506775,1.0135193,0.9906006
			c0.1973267,0.0571136,0.4003601,0.0722046,0.5986023,0.0480347c0.2859802-0.0348511,0.5604248-0.1519318,0.7869263-0.3438416
			c0.4299011-0.3632812,0.855011-0.7377777,1.2731018-1.1251984
			C492.2972412,224.3427582,494.3994446,205.7466736,484.1976929,194.7434998z"/>
	</g>
	<path d="M402.1730347,307.7792053c-7.5310974-4.0041199-20.3847046-6.1898804-33.2669983-4.7287292
		c-12.8823242,1.4611511-24.9198608,6.4701843-31.362793,12.0592651c-6.4430237,5.5890503-6.5003052,12.8829956,2.176178,19.1862488
		c8.6763916,6.3032837,24.0406189,9.1759949,33.6477966,8.0863037c9.6071167-1.0896606,23.9376526-7.3304749,30.9819946-15.4168701
		C411.3935242,318.8790588,409.7040405,311.7832336,402.1730347,307.7792053z"/>
	<g>
		<path class="st2" d="M376.5086365,295.7157898c-0.1593323-0.1478882-0.3261108-0.2887268-0.4919739-0.4285889
			c-2.9272766-2.4681702-6.6206055-4.3326111-10.2398682-5.6643066c-3.3977661-1.2501831-7.0873718-1.7157898-10.6868286-1.3071289
			c-2.7497559,0.3122253-3.6731873,1.6562195-4.0292053,4.2438354c-0.3162231,2.2983093-1.0856323,4.5319214-2.2410583,6.5431213
			c-0.760376,1.3235168-2.4538574,3.4342041-0.7024536,4.8651428c0.4405212,0.3599243,1.0593567,0.4352722,1.6195679,0.3364258
			c0.5602722-0.0988464,1.0795288-0.3516541,1.5950012-0.5924377c7.2265015-3.3754883,14.8074951-4.0536499,22.6931152-4.4484253
			c0.7101135-0.035553,3.2051697-0.4184265,3.4351501-1.3616943c0.1246033-0.5109863-0.04599-1.058075-0.3398743-1.4942627
			C376.9475403,296.1511841,376.7356262,295.9263916,376.5086365,295.7157898z"/>
	</g>
	<g>
		<path d="M421.5982666,350.3180237c-6.2929688-6.1923828-14.9921875-8.0410156-24.4960938-5.2011719
			c-29.4238281,8.7890625-35.6064453,9.4785156-49.1513672,10.9912109l-2.9355469,0.3300781
			c-6.8984375,0.78125-9.7216797,4.2783203-10.875,7.0751953c-3.1425781,7.6152344,2.6669922,18.453125,5.1386719,21.5390625
			c0.1708984,0.2128906,0.3818359,0.4980469,0.6386719,0.8417969c9.8779297,13.2460938,22.9160156,19.8964844,38.9160156,19.8964844
			c6.2597656,0,12.9736328-1.0185547,20.1259766-3.0585938c15.1083984-3.5410156,25.7480469-12.6035156,29.1992188-24.8720703
			C430.9801025,367.8277893,428.4049072,357.0172424,421.5982666,350.3180237z M398.8189697,350.8648987
			c2.3017578-0.6875,4.5302734-1.0263672,6.6523438-1.0263672c0.0825195,0,0.1621094,0.0097656,0.2441406,0.0107422
			c0.4018555,1.503418,1.0717773,5.2836914-0.6484375,9.9345703c-0.9208984,1.8955078-10.6796875,6.5439453-25.9179688,9.9912109
			c-13.7070312,3.0996094-23.1230469,3.1572266-25.0283203,1.6376953c-3.7451172-2.989502-5.1992188-6.7963867-5.7636719-9.3127441
			l0.2597656-0.0290527C362.5289307,360.5172424,368.8795166,359.8082581,398.8189697,350.8648987z M397.5250244,396.9059143
			c-0.0488281,0.0117188-0.0966797,0.0234375-0.1445312,0.0371094c-13.5761719,3.8859863-25.3427734,3.7160645-35.1987305-0.4748535
			c2.0253906-2.6716309,6.8706055-7.026123,17.855957-9.5134277c12.3457031-2.7963867,24.2612305,1.9606934,30.109375,4.9379883
			C406.84729,393.9310608,402.7154541,395.6964417,397.5250244,396.9059143z M422.3824463,376.2350159
			c-0.9169922,3.2612305-2.9780273,7.9194336-7.5722656,12.1437988c-5.28125-3.03125-19.9980469-10.1950684-35.9404297-6.5842285
			c-13.1982422,2.9882812-18.9980469,8.6279297-21.4501953,12.2414551
			c-4.7460938-2.8476562-8.9833984-6.755127-12.6923828-11.7287598c-0.3066406-0.4111328-0.5605469-0.7509766-0.7646484-1.0048828
			c-1.9404297-2.421875-6.1923828-10.8564453-4.2763672-15.5009766c0.2294922-0.5568848,0.8383789-2.0085449,3.4506836-2.8669434
			c0.7138672,3.3884277,2.6147461,8.5671387,7.6831055,12.6130371c1.9453125,1.5527344,5.3837891,2.1259766,9.40625,2.1259766
			c10.5078125,0,24.9892578-3.9150391,27.1601562-4.5195312c9.3447266-2.5996094,20.8564453-6.7080078,22.6347656-11.5136719
			c1.6142578-4.3642578,1.6015625-8.2114258,1.2485352-10.8395996c2.2734375,0.7868652,4.3413086,2.0441895,6.1196289,3.7946777
			C422.6617432,359.7828674,424.6217041,368.2770081,422.3824463,376.2350159z"/>
		<path class="st12" d="M411.2696533,350.8006897c0.3530273,2.6281738,0.3657227,6.4753418-1.2485352,10.8395996
			c-1.7783203,4.8056641-13.2900391,8.9140625-22.6347656,11.5136719
			c-2.1708984,0.6044922-16.6523438,4.5195312-27.1601562,4.5195312c-4.0224609,0-7.4609375-0.5732422-9.40625-2.1259766
			c-5.0683594-4.0458984-6.9692383-9.2246094-7.6831055-12.6130371c-2.6123047,0.8583984-3.2211914,2.3100586-3.4506836,2.8669434
			c-1.9160156,4.6445312,2.3359375,13.0791016,4.2763672,15.5009766c0.2041016,0.2539062,0.4580078,0.59375,0.7646484,1.0048828
			c3.7089844,4.9736328,7.9462891,8.8811035,12.6923828,11.7287598c2.4521484-3.6135254,8.2519531-9.2531738,21.4501953-12.2414551
			c15.9423828-3.6108398,30.6591797,3.5529785,35.9404297,6.5842285c4.5942383-4.2243652,6.6552734-8.8825684,7.5722656-12.1437988
			c2.2392578-7.9580078,0.2792969-16.4521484-4.9931641-21.6396484
			C415.6109619,352.8448792,413.5430908,351.5875549,411.2696533,350.8006897z"/>
		<path class="st13" d="M380.0377197,386.9547424c-10.9853516,2.4873047-15.8305664,6.8417969-17.855957,9.5134277
			c9.855957,4.190918,21.6225586,4.3608398,35.1987305,0.4748535c0.0478516-0.0136719,0.0957031-0.0253906,0.1445312-0.0371094
			c5.1904297-1.2094727,9.3222656-2.9748535,12.6220703-5.0131836
			C404.2989502,388.9154358,392.3834229,384.1583557,380.0377197,386.9547424z"/>
		<path class="st0" d="M354.1207275,371.4127502c1.9052734,1.5195312,11.3212891,1.4619141,25.0283203-1.6376953
			c15.2382812-3.4472656,24.9970703-8.0957031,25.9179688-9.9912109c1.7202148-4.6508789,1.050293-8.4311523,0.6484375-9.9345703
			c-0.0820312-0.0009766-0.1616211-0.0107422-0.2441406-0.0107422c-2.1220703,0-4.3505859,0.3388672-6.6523438,1.0263672
			c-29.9394531,8.9433594-36.2900391,9.6523438-50.2021484,11.2060547l-0.2597656,0.0290527
			C348.9215088,364.6163635,350.3756104,368.4232483,354.1207275,371.4127502z"/>
	</g>
	<path class="st2" d="M397.7042236,638.6141357c-1.7792969,2.1005859-3.7954102,4.7067871-6.21875,6.1022949
		c-3.4501953,1.9873047-7.6645508,1.3007812-11.4833984,1.1787109c-6.9008789-0.2202148-13.8022461-0.440918-20.7036133-0.661377
		c-0.8310547-0.0266113-1.5283203,0.1516113-2.1206055,0.449707c1.5097656,2.173584,3.9257812,3.5820312,6.6762695,3.767334
		l18.1650391,1.2216797c6.6962891,0.4423828,13.0087891-2.5371094,16.8974609-7.9921875
		c7.7753906-10.9042969,21.6474609-30.7871094,27.1894531-41.4375c0.0019531-0.0048828,0.0048828-0.0087891,0.0068359-0.0126953
		l0.8300781-1.5908203c4.8642578-9.296875,12.0205078-22.9975586,15.2695312-43.3999023
		c-0.003418-0.3642578,0.0244141-0.7329102,0.1044922-1.1040039c0.0869141-0.4033203,0.1694336-0.8164062,0.2475586-1.237793
		c0.644043-4.5732422,1.0893555-9.4699707,1.2714844-14.7175293c0.0737305-3.340332,0.0439453-6.6069336-0.0297852-9.5107422
		c-3.7250977,26.7150879-12.6147461,51.855957-25.2768555,75.6242676
		C412.4376221,616.7286377,406.1114502,628.6866455,397.7042236,638.6141357z"/>
	<path class="st2" d="M281.2813721,634.6741943c-2.5263672-1.5087891-3.8378906-4.1870117-5.0234375-6.7666016
		c-5.4077148-11.7675781-7.5561523-25.2822266-9.7890625-37.9455566c-4.8505859-27.5048828-5.637207-55.3095703-0.340332-82.8119812
		c0.0727539-0.3776855,0.0991211-0.7399902,0.090332-1.0876465c-12.1303864,33.3459167-10.2944489,53.0146179-8.8637695,68.2380066
		c1.0771484,11.4716797,8.6328125,37.8955078,13.5751953,51.7900391c2.2441406,6.3125,7.5,10.9169922,14.0585938,12.3193359
		l17.8037109,3.8056641c0.4604492,0.0976562,1.3388672,0.2832031,2.6206055,0.0603027
		c-5.1010742-1.541748-10.2026367-3.083252-15.3037109-4.625
		C287.2716064,636.7930908,283.8575439,636.2127686,281.2813721,634.6741943z"/>
	<path class="st2" d="M283.5172119,433.190094c-6.4829102-2.9648438-12.8745117-6.1320801-19.2207031-9.3781738
		c-12.5815582-6.435791-25.0766754-12.6694336-33.6728668-24.3896484
		c-12.8725586-17.5512695-12.6933594-38.5864258-9.0092773-59.1699219
		c1.9819336-11.0744629,4.5307617-22.0390625,6.0229492-33.1984863c1.1962891-8.9516602,3.5864258-19.8005371-1.7641602-27.7663574
		c-3.0024414-4.4694824-7.402832-7.5048828-11.0146484-11.4230957c-3.4238281-3.7150879-6.2192383-7.9147949-8.4575195-12.4419098
		c-4.543457-9.1906738-9.2148438-21.7875977-9.0986328-31.9379883c-2.6640625,7.8686523-2.6020508,16.6630859,0.2900391,25.4467773
		c3.8837891,11.7978668,12.3496094,22.1269684,23.8369141,29.0849762c0.7041016,0.4257812,1.4140625,0.8320312,2.1279297,1.2255859
		c1.8222656,1.0048828,2.8320312,3.0332031,2.5341797,5.0927734c-0.2822266,1.9599609-0.5019531,3.6992188-0.671875,5.3183594
		c-1.5292969,14.5751953-4.8291016,29.8623047-10.0898438,46.7382812c-3.3144531,10.6318359-6.4726562,25.8125-1.4375,49.0205078
		c6.0019531,27.6669922,35.1210938,47.2041016,79.9072418,53.6201172l6.0083008,0.3232422
		c-0.5625-0.3413086-1.2285156-0.604248-2.0185547-0.7524414
		C292.8394775,437.6739807,288.0596924,435.2677307,283.5172119,433.190094z"/>
	<path class="st2" d="M518.0616455,345.6627502c-5.4418945,24.2353516-21.6728516,46.4316406-40.3833008,62.8461914
		c0.4003906,0.2646484,0.7939453,0.5383301,1.1782227,0.824707c32.3076172-18.1911621,44.9477539-41.1245117,44.3540039-61.6269531
		c-0.6884766-23.7373047-7.4013672-37.7148438-13.1728516-47.2402344c-5.7861328-9.550293-10.65625-18.6708984-14.7177734-27.565918
		c0.0024414,0.0068359,0.0039062,0.0131836,0.0063477,0.0202637
		C503.3492432,295.365387,523.7335205,320.4046936,518.0616455,345.6627502z"/>
	<path class="st2" d="M477.7769775,423.3802795c-0.3974609-0.8198242-0.8525391-1.6154785-1.3828125-2.3786621
		c-1.6523438-2.3781738-3.9033203-4.1660156-6.6489258-5.3791504c-3.0556641-1.3503418-6.7265625-1.9846191-10.8959961-1.8962402
		c-1.7475586,1.0534668-3.4116211,2.2897949-4.9755859,3.7436523c-4.2509766,3.9519043,2.1240234,10.3054199,6.3642578,6.3637695
		c2.1826172-2.0290527,4.777832-3.5935059,7.5966797-4.527832c1.0639648,1.9633789,2.1542969,3.9934082,3,6.0698242
		c-4.2124023,1.668457-7.9785156,4.2255859-10.8232422,7.8061523c-1.5102539,1.901123-1.855957,4.5075684,0,6.3637695
		c1.5673828,1.5673828,4.8442383,1.9133301,6.3642578,0c1.6137695-2.0317383,3.5126953-3.7446289,5.7607422-4.9472656
		c-0.765625,4.8525391-3.5546875,9.5048828-6.1518555,13.4890137c-5.6982422,8.7414551-14.0361328,15.3444824-23.0683594,20.3876953
		c-20.8095703,11.619873-44.9487305,16.8623047-68.6723633,16.362793c-1.4633789-0.0307617-2.6479492,0.3759766-3.5566406,1.0549316
		c25.5063477,3.9284668,65.8881836,5.7600098,88.8173828-15.7172852
		C473.6265869,456.9481506,484.2120361,436.6598206,477.7769775,423.3802795z"/>
	<path d="M563.4078369,483.4449768c-5.6943359-5.6523438-13.3125-8.6279297-21.4423828-8.3886719
		c-7.5869141,0.2263184-14.8710938,3.3334961-20.3276367,8.5869141c-7.2080078,0.074707-32.9008789-0.0673828-56.2255859-5.3200684
		c0.3149414-0.282959,0.6264648-0.5661621,0.9282227-0.848877c20.8613281-19.5395508,28.7304688-44.6291504,19.2954102-60.5688477
		c3.5888672-2.0834961,7.0180664-4.25,10.2592773-6.512207c25.0957031-17.515625,37.9970703-39.2929688,37.3115234-62.9755859
		c-0.7568359-26.0742188-8.2080078-41.5576172-14.6162109-52.1328125
		c-8.8164062-14.5517578-15.4140625-28.0166016-20.1699219-41.1640778
		c-0.2597656-0.7207031-0.5341797-1.4570312-0.8261719-2.2177734c22.8652344-23.3369141,25.1464844-58.4433594,5.0058594-78.5136719
		c-19.9609375-19.8886719-54.6103516-17.7070312-77.8691406,4.6728516
		c-24.0546875-9.3359375-52.4091797-12.609375-80.2802734-9.2099609
		c-27.8662109,3.3964844-54.6103516,13.3857422-75.7167969,28.2255859
		c-27.9541168-16.1347656-62.1142731-9.9326172-76.7099762,14.1689453
		c-7.2558594,11.9794922-8.6513672,26.4736328-3.9306641,40.8125c4.5722656,13.8857574,14.3798828,26.0107574,27.6494141,34.2011871
		c-0.0996094,0.8105469-0.1894531,1.5917969-0.2685547,2.3505859c-1.4599609,13.9101562-4.6298828,28.5654297-9.6914062,44.8037109
		c-3.6796875,11.8046875-7.1943359,28.6240234-1.6640625,54.1162109c3.3544922,15.4628906,12.8320312,29.140625,27.40625,39.5546875
		c14.0058594,10.0078125,32.4228668,17.0200195,54.8017731,20.8867188c-0.699707,0.7597656-1.3950195,1.5390625-2.0839844,2.34375
		c-2.0527344,2.0273438-3.8432617,4.2001953-4.9785156,6.3779297c-3.1416016,4.3913574-6.1323242,9.3132324-8.9111328,14.8710938
		c-0.0019531,0.0039062-0.0039062,0.0078125-0.0058594,0.0126953
		c-27.5185699,55.0468445-24.8769684,83.141571-22.949234,103.6581726
		c1.1953125,12.7207031,9.1025543,40.1259766,14.1103668,54.2050781
		c3.4150391,9.6064453,11.4121094,16.6142578,21.390625,18.7480469l17.8027344,3.8056641
		c6.0917969,1.2998047,12.1884766-0.7363281,18.1240234-6.0566406c6.6748047-5.9814453,11.8291016-11.0205078,17.4013672-18.0292969
		c1.2900391,0.2421875,2.5917969,0.4560547,3.8955078,0.6386719c0.8271484,0.1152344,1.6591797,0.21875,2.4931641,0.3095703
		c0.4980469,8.0371094,2.5869141,14.6435547,4.4121094,19.0322266c2.7587891,6.6328125,8.9482422,11.0537109,16.1542969,11.5380859
		l18.1650391,1.2216797c0.6738281,0.0458984,1.3427734,0.0683594,2.0107422,0.0683594
		c9.4238281-0.0009766,18.1728516-4.4785156,23.7011719-12.2304688c0.6425781-0.9023438,1.2988281-1.8251953,1.9658203-2.765625
		c0.2714844-0.3837891,0.5449219-0.7705078,0.8193359-1.1591797c0.0273438-0.0380859,0.0537109-0.0751953,0.0810547-0.1142578
		c0.4306641-0.609375,0.8662109-1.2265625,1.3037109-1.8486328c0.0849609-0.1201172,0.1699219-0.2421875,0.2558594-0.3632812
		c0.1738281-0.2490234,0.3486328-0.4970703,0.5234375-0.7470703c0.0322266-0.0458984,0.0654297-0.0927734,0.0976562-0.1386719
		c6.6474609-9.4794922,13.8330078-20.0751953,18.9023438-28.4951172c0.0058594-0.0097656,0.0117188-0.0185547,0.0166016-0.0273438
		c0.0175781-0.0292969,0.0341797-0.0566406,0.0517578-0.0859375c1.515625-2.5214844,2.8398438-4.8457031,3.9003906-6.8837891
		l0.0029297-0.0058594l0.8242188-1.5771484c5.4453125-10.4094238,13.5839844-25.9902344,16.7749023-49.6328125
		c0.7226562-4.3527832,1.0820312-9.2912598,1.2246094-14.1057129c0.1538086-3.8342285,0.1689453-7.8535156,0.0380859-12.0500488
		c32.1762695,20.7927246,60.9960938,26.7175293,83.7836914,17.1088867
		c18.1474609-7.6523438,30.6962891-21.0732422,33.5683594-35.9003601
		C573.1343994,499.6783752,570.3687744,490.3561096,563.4078369,483.4449768z M561.3765869,507.7926331
		c-2.2041016,11.3749695-12.7929688,22.329071-27.6357422,28.5878601
		c-27.0390625,11.4013672-59.8144531-5.5576172-82.5527344-21.7900391c-1.5830078-1.1308594-3.6787109-1.2412109-5.3691406-0.28125
		c-1.6923828,0.9580078-2.6748047,2.8115234-2.5205078,4.75c0.012207,0.1486816,0.7651367,9.8151855,0.5375977,20.1208496
		c-0.1821289,5.2475586-0.6274414,10.1442871-1.2714844,14.7175293c-0.078125,0.4213867-0.1606445,0.8344727-0.2475586,1.237793
		c-0.0800781,0.3710938-0.1079102,0.7397461-0.1044922,1.1040039
		c-3.2490234,20.4023438-10.4052734,34.1030273-15.2695312,43.3999023l-0.8300781,1.5908203
		c-0.0019531,0.0039062-0.0048828,0.0078125-0.0068359,0.0126953c-5.5419922,10.6503906-19.4140625,30.5332031-27.1894531,41.4375
		c-3.8886719,5.4550781-10.2011719,8.4345703-16.8974609,7.9921875l-18.1650391-1.2216797
		c-3.3935547-0.2285156-6.3027344-2.2978516-7.5927734-5.4003906c-1.5507812-3.7316895-3.3208008-9.3999023-3.6796875-16.2805176
		c19.4873047-0.3879395,30.4760742-8.130127,31.0224609-8.5241699c2.2285156-1.6103516,2.7265625-4.7080078,1.1308594-6.9472656
		c-1.5966797-2.2373047-4.7119141-2.7607422-6.9609375-1.1777344c-0.1328125,0.0917969-13.4150391,9.2070312-36.6660156,5.9580078
		c-23.1484375-3.2353516-33.4326172-15.5449219-33.6259766-15.7802734c-1.7128906-2.1513672-4.84375-2.5136719-7.0048828-0.8105469
		c-2.1689453,1.7089844-2.5419922,4.8535156-0.8320312,7.0214844c0.4125977,0.5234375,8.6694336,10.7436523,26.8510742,16.5007324
		c-4.4702148,5.3295898-8.8535156,9.5605469-14.3452148,14.4816895c-5.1582031,4.6230469-8.3183594,3.9443359-9.3583984,3.7236328
		l-17.8037109-3.8056641c-6.5585938-1.4023438-11.8144531-6.0068359-14.0585938-12.3193359
		c-4.9423828-13.8945312-12.4980469-40.3183594-13.5751953-51.7900391
		c-1.8154449-19.3154297-4.3007965-45.7695312,21.9433594-98.2646179c2.5463867-5.0932617,5.2700195-9.6064453,8.1362305-13.6130371
		c0.1103516-0.1401367,0.2163086-0.2836914,0.3125-0.4375c1.1787109-1.6262207,2.3803711-3.1682129,3.6049805-4.626709
		c3.2666016-3.1584473,8.0488281-6.5983887,11.5097656-8.6870117c1.8808594-1.1328125,2.8027344-3.3613281,2.2714844-5.4921875
		s-2.3896484-3.6660156-4.5830078-3.7841797l-6.7509766-0.3632812
		c-44.7861481-6.4160156-73.9052887-25.953125-79.9072418-53.6201172c-5.0351562-23.2080078-1.8769531-38.3886719,1.4375-49.0205078
		c5.2607422-16.8759766,8.5605469-32.1630859,10.0898438-46.7382812c0.1699219-1.6191406,0.3896484-3.3583984,0.671875-5.3183594
		c0.2978516-2.0595703-0.7119141-4.0878906-2.5341797-5.0927734c-0.7138672-0.3935547-1.4238281-0.7998047-2.1279297-1.2255859
		c-11.4873047-6.9580078-19.953125-17.2871094-23.8369141-29.0849762
		c-3.7929688-11.5195312-2.7333984-23.0634766,2.984375-32.5039062
		c11.9619141-19.7509766,40.7783203-24.2568359,64.2402496-10.0488281c0.4003906,0.2421875,0.7890625,0.4960938,1.1787109,0.7480469
		l0.2421875,0.1572266c1.7490234,1.1328125,4.0175781,1.0595703,5.6923828-0.1806641
		c20.140625-14.9248047,46.3261719-24.9833984,73.7314453-28.3251953c27.4003906-3.3388672,55.2363281,0.1337891,78.375,9.7841797
		c1.9228516,0.7978516,4.1376953,0.3271484,5.5664062-1.1894531l0.2304688-0.2451172
		c0.3085938-0.3291016,0.6162109-0.6572266,0.9345703-0.9775391c19.3583984-19.4287109,48.4160156-21.9736328,64.7734375-5.6767578
		c16.3564453,16.2978516,13.9121094,45.3642578-5.4462891,64.7919922c-0.5820312,0.5839844-1.1738281,1.1494141-1.7714844,1.7021484
		c-1.5283203,1.4130859-2.0214844,3.625-1.2373047,5.5537109c0.7412109,1.8232422,1.3730469,3.4589844,1.9306641,5.0009918
		c4.9824219,13.7753906,11.8583984,27.8222656,21.0205078,42.9443359
		c5.7714844,9.5253906,12.484375,23.5029297,13.1728516,47.2402344c0.59375,20.5024414-12.0463867,43.435791-44.3540039,61.6269531
		c-11.4794922-8.559082-30.3178711-7.4472656-52.3442383,3.5175781
		c-35.5068359,17.6757812-62.6181641,26.5126953-75.6464844,30.7597656
		c-3.4980469,1.140625-6.0253906,1.9638672-7.5839844,2.5917969c-4.9521484,1.9941406-7.8457031,3.3261719-9.5605469,4.4169922
		l-1.5439453,0.7382812c-0.0449219,0.0214844-0.0888672,0.0429688-0.1328125,0.0664062l-4.7558594,2.4501953
		c-2.4550781,1.2646484-3.4199219,4.2792969-2.1542969,6.734375c1.2636719,2.4550781,4.2773438,3.4208984,6.734375,2.1542969
		l4.6904297-2.4160156l1.859375-0.8896484c0.0146484-0.0068359,0.0292969-0.0136719,0.0429688-0.0205078
		c0.0136719-0.0058594,0.0273438-0.0126953,0.0410156-0.0195312l0.2148438-0.1025391l-0.0019531-0.0048828
		c0.2753906-0.1445312,0.5263672-0.3007812,0.7558594-0.4648438c1.1943359-0.6113281,3.7578125-1.8408203,7.5458984-3.3662109
		c1.2441406-0.5009766,3.7617188-1.3212891,6.9482422-2.3603516c13.2548828-4.3212891,40.8378906-13.3115234,77.0039062-31.3154297
		c21.0732422-10.4882812,38.4794922-10.796875,45.4248047-0.8017578
		c9.1191406,13.1230469-1.8955078,35.1298828-16.8896484,49.1738281
		c-24.7861328,23.2167969-69.9804688,19.1982422-94.7167969,14.734375
		c-2.7148438-0.4892578-5.3183594,1.3154297-5.8085938,4.0332031s1.3154297,5.3183594,4.0332031,5.8085938
		c14.3974609,2.5966797,27.0546875,3.7109375,38.1816406,3.7109375c24.7646484-0.0007324,41.9306641-5.5217285,53.734375-12.4924316
		c21.152832,6.0874023,45.4711914,7.4262695,58.8769531,7.6589355c-6.6762695,10.859375-8.4741211,22.6213074-5.1416016,34.4965515
		c0.7470703,2.6572266,3.5058594,4.2050781,6.1660156,3.4628906c2.6582031-0.7470703,4.2089844-3.5068359,3.4628906-6.1660156
		c-3.2851562-11.703125-0.1855469-22.9677429,9.2128906-33.4823914c3.7626953-4.2099609,9.1425781-6.7207031,14.7587891-6.8876953
		c5.3642578-0.1611328,10.3710938,1.7900391,14.0986328,5.4902344
		C560.8814697,495.0279846,562.6627197,501.1549377,561.3765869,507.7926331z"/>
	<path class="st0" d="M561.3765869,507.7926331c1.2861328-6.6376953-0.4951172-12.7646484-5.0136719-17.25
		c-3.7275391-3.7001953-8.734375-5.6513672-14.0986328-5.4902344c-5.6162109,0.1669922-10.9960938,2.6777344-14.7587891,6.8876953
		c-9.3984375,10.5146484-12.4980469,21.7792664-9.2128906,33.4823914c0.6411133,2.2844238-0.4199219,4.6342773-2.4150391,5.7275391
		c1.1591797,3.3623047,2.8764648,6.2880859,5.0869141,8.5722656c4.3554688-0.5200195,8.6337891-1.5949707,12.7763672-3.3417969
		C548.5836182,530.1217041,559.1724854,519.1676025,561.3765869,507.7926331z"/>
	<path class="st2" d="M519.8023682,523.0064697c0.5009766-6.3410645,1.0908203-13.4252625,3.8261719-19.3139343
		c0.4145508,1.4941406,0.6298828,3.0463867,0.6337891,4.6862793c0.0141602,5.7904968,9.0146484,5.801239,9,0
		c-0.0112305-4.4675293-1.1098633-8.7980957-3.237793-12.6989746c1.9116211-1.3986816,3.9106445-2.3874512,5.9584961-3.0605469
		c1.5732422,2.546875,2.5610352,5.3757324,3.0292969,8.489502c0.3618164,2.4055176,3.3930664,3.7316895,5.5356445,3.1430664
		c2.5737305-0.7072754,3.5058594-3.1228027,3.1430664-5.5356445c-0.3681641-2.4477539-1.0708008-4.8037109-2.0444336-7.0375977
		c4.765625,0.4980469,9.5219727,2.2294922,13.8803711,4.5895996c0.3095703,0.1674805,0.6166992,0.2946777,0.9199219,0.3881836
		c-0.9101562-2.2519531-2.2734375-4.3164062-4.0839844-6.1137695c-3.7275391-3.7001953-8.734375-5.6513672-14.0986328-5.4902344
		c-5.6162109,0.1669922-10.9960938,2.6777344-14.7587891,6.8876953
		c-9.3984375,10.5146484-12.4980469,21.7792664-9.2128906,33.4823914c0.0537109,0.1911621,0.0698242,0.3823242,0.1000977,0.5737305
		C519.1539307,525.2833252,519.7003174,524.2972412,519.8023682,523.0064697z"/>
</g>
</svg>
