<?xml version="1.0" encoding="UTF-8" standalone="no"?>
<!DOCTYPE svg PUBLIC "-//W3C//DTD SVG 1.1//EN" "http://www.w3.org/Graphics/SVG/1.1/DTD/svg11.dtd">
<svg width="100%" height="100%" viewBox="0 0 621 746" version="1.1" xmlns="http://www.w3.org/2000/svg" xmlns:xlink="http://www.w3.org/1999/xlink" xml:space="preserve" xmlns:serif="http://www.serif.com/" style="fill-rule:evenodd;clip-rule:evenodd;stroke-linejoin:round;stroke-miterlimit:2;">
    <g transform="matrix(1,0,0,1,-231.917,-142.027)">
        <g id="Layer-2" serif:id="Layer 2">
            <g transform="matrix(1,0,0,1,801.833,412.073)">
                <path d="M0,206.206C-19.136,217.992 -45.807,219.629 -79.277,211.066C-107.279,203.904 -133.409,191.303 -150.399,181.996C-153.371,180.366 -157.057,180.869 -159.484,183.235C-161.91,185.599 -162.509,189.27 -160.959,192.284C-157.565,198.882 -154.545,206.083 -151.985,213.688C-124.26,296.049 -141.659,344.754 -151.007,370.92L-151.944,373.548C-158.135,390.996 -175.074,424.32 -184.62,442.631C-189.394,451.79 -198.402,457.701 -208.718,458.442L-236.717,460.454C-241.932,460.831 -246.832,458.289 -249.465,453.825C-252.506,448.67 -256.246,440.837 -258.322,430.977C-230.986,425.721 -217.025,412.657 -216.306,411.966C-213.246,409.033 -213.146,404.195 -216.062,401.118C-218.977,398.039 -223.847,397.909 -226.943,400.805C-227.124,400.974 -245.458,417.729 -281.662,417.729C-317.672,417.729 -336.003,401.154 -336.377,400.809C-339.453,397.892 -344.31,398.003 -347.248,401.065C-350.194,404.139 -350.092,409.019 -347.02,411.966C-346.231,412.723 -329.562,428.345 -296.798,432.262C-298.919,441.518 -302.464,448.897 -305.372,453.826C-308.006,458.289 -312.906,460.833 -318.12,460.454L-346.119,458.442C-356.434,457.701 -365.443,451.79 -370.218,442.631C-379.764,424.32 -396.703,390.996 -402.894,373.548L-403.819,370.949C-411.484,349.492 -424.312,313.58 -414.175,257.15C-413.592,253.906 -415.136,250.651 -418.017,249.049C-419.189,248.396 -420.479,248.078 -421.762,248.078C-423.625,248.078 -425.474,248.752 -426.925,250.06C-451.268,272.003 -474.525,282.528 -496.079,281.314C-531.788,279.319 -552.416,260.237 -554.337,242.419C-556.354,223.719 -539.154,207.449 -508.328,198.896C-442.708,180.69 -406.042,162.559 -393.324,155.609C-393.021,155.443 -392.729,155.257 -392.451,155.052C-392.092,154.788 -391.641,154.495 -391.033,154.13C-388.292,152.486 -386.851,149.321 -387.408,146.174C-387.966,143.026 -390.409,140.55 -393.547,139.947C-476.767,123.983 -527.12,86.481 -531.697,37.056C-535.073,0.595 -527.406,-22.05 -520.35,-37.706C-509.147,-62.56 -501.245,-85.343 -496.188,-107.356C-495.624,-109.81 -494.962,-112.433 -494.165,-115.374C-493.326,-118.472 -494.494,-121.767 -497.099,-123.644C-498.116,-124.377 -499.126,-125.132 -500.123,-125.916C-533.38,-152.041 -542.542,-196.072 -520.548,-224.069C-510.036,-237.452 -493.957,-245.257 -475.273,-246.047C-456.143,-246.852 -436.634,-240.257 -420.349,-227.465C-419.796,-227.03 -419.261,-226.582 -418.726,-226.134L-418.339,-225.812C-415.872,-223.757 -412.391,-223.445 -409.597,-225.03C-375.985,-244.115 -334.031,-254.627 -291.463,-254.627C-248.895,-254.627 -206.941,-244.115 -173.329,-225.03C-170.54,-223.447 -167.059,-223.756 -164.591,-225.808L-164.182,-226.149C-163.652,-226.592 -163.123,-227.035 -162.577,-227.465C-146.292,-240.258 -126.786,-246.857 -107.652,-246.047C-88.969,-245.257 -72.89,-237.452 -62.377,-224.069C-51.864,-210.687 -48.088,-193.217 -51.745,-174.877C-55.489,-156.095 -66.519,-138.708 -82.804,-125.916C-83.801,-125.132 -84.81,-124.377 -85.827,-123.644C-88.432,-121.767 -89.6,-118.472 -88.761,-115.374C-87.962,-112.429 -87.302,-109.807 -86.738,-107.356C-81.681,-85.338 -73.777,-62.556 -62.576,-37.706C-55.52,-22.05 -47.853,0.595 -51.229,37.056C-54.836,76.01 -87.388,108.185 -142.888,127.654C-146.494,128.919 -148.628,132.634 -147.907,136.386C-147.185,140.138 -143.834,142.783 -140.006,142.632C-118.38,141.705 -81.597,138.089 -29.17,126.122C2.598,118.866 25.92,125.187 33.215,143.023C40.152,159.982 30.97,187.131 0,206.206" style="fill:white;fill-rule:nonzero;"/>
            </g>
            <g transform="matrix(1,0,0,1,565.116,157.826)">
                <path d="M0,714.7L28,712.688C38.315,711.947 47.323,706.037 52.098,696.878C61.644,678.567 78.583,645.242 84.773,627.795L85.71,625.167C95.058,599.001 112.458,550.296 84.732,467.934C82.172,460.33 79.152,453.128 75.758,446.53C74.208,443.517 74.807,439.846 77.233,437.481C79.661,435.116 83.347,434.613 86.318,436.242C103.308,445.55 129.438,458.15 157.44,465.313C190.91,473.875 217.582,472.239 236.717,460.452C267.687,441.377 276.869,414.228 269.932,397.269C262.638,379.433 239.315,373.112 207.547,380.368C155.121,392.336 118.337,395.951 96.711,396.879C92.883,397.029 89.533,394.384 88.811,390.633C88.089,386.88 90.224,383.165 93.829,381.901C149.329,362.432 181.881,330.256 185.488,291.302C188.864,254.842 181.198,232.196 174.141,216.54C162.94,191.691 155.037,168.908 149.979,146.89C149.416,144.439 148.755,141.817 147.957,138.873C147.117,135.775 148.286,132.48 150.89,130.602C151.908,129.869 152.917,129.115 153.914,128.331C170.198,115.539 181.229,98.151 184.973,79.369C188.629,61.03 184.853,43.559 174.34,30.177C163.828,16.795 147.748,8.989 129.065,8.199C109.931,7.389 90.425,13.989 74.141,26.782C73.594,27.212 73.065,27.654 72.536,28.097L72.126,28.438C69.659,30.491 66.177,30.8 63.388,29.217C29.776,10.131 -12.178,-0.38 -54.746,-0.38C-97.313,-0.38 -139.268,10.131 -172.88,29.217C-175.673,30.802 -179.154,30.49 -181.622,28.435L-182.009,28.112C-182.544,27.665 -183.079,27.216 -183.632,26.782C-199.917,13.99 -219.425,7.394 -238.556,8.199C-257.239,8.989 -273.318,16.795 -283.831,30.177C-305.825,58.175 -296.663,102.206 -263.405,128.331C-262.409,129.115 -261.399,129.869 -260.381,130.602C-257.777,132.48 -256.608,135.775 -257.448,138.873C-258.245,141.813 -258.907,144.436 -259.471,146.891C-264.527,168.904 -272.43,191.686 -283.632,216.54C-290.689,232.196 -298.355,254.842 -294.979,291.302C-290.403,340.727 -240.049,378.23 -156.83,394.194C-153.691,394.796 -151.249,397.273 -150.691,400.42C-150.133,403.567 -151.575,406.732 -154.316,408.376C-154.924,408.741 -155.375,409.034 -155.734,409.299C-156.012,409.504 -156.304,409.689 -156.606,409.855C-169.325,416.805 -205.99,434.936 -271.611,453.142C-302.437,461.695 -319.636,477.966 -317.62,496.666C-315.699,514.484 -295.071,533.565 -259.362,535.56C-237.808,536.774 -214.55,526.249 -190.208,504.307C-188.757,502.999 -186.908,502.324 -185.044,502.324C-183.762,502.324 -182.472,502.643 -181.299,503.296C-178.419,504.897 -176.875,508.153 -177.458,511.397C-187.594,567.826 -174.767,603.738 -167.102,625.195L-166.176,627.795C-159.985,645.242 -143.046,678.567 -133.5,696.878C-128.726,706.037 -119.717,711.947 -109.402,712.688L-81.403,714.7C-76.188,715.08 -71.289,712.535 -68.655,708.072C-65.793,703.221 -62.314,695.996 -60.183,686.945C-92.88,683.008 -109.519,667.418 -110.307,666.662C-113.379,663.715 -113.481,658.835 -110.535,655.762C-107.597,652.7 -102.739,652.587 -99.664,655.505C-99.318,655.824 -83.577,670.037 -52.684,672.153C-51.958,671.998 -51.196,671.946 -50.418,672.011C-47.753,672.239 -45.062,672.349 -42.368,672.387C-7.879,671.617 9.594,655.665 9.77,655.501C12.866,652.604 17.736,652.735 20.651,655.813C23.567,658.891 23.467,663.728 20.408,666.662C19.689,667.352 5.758,680.387 -21.518,685.656C-19.424,695.314 -15.745,702.992 -12.748,708.072C-10.114,712.536 -5.214,715.078 0,714.7" style="fill:white;fill-rule:nonzero;"/>
            </g>
            <g transform="matrix(1,0,0,1,520.528,845.612)">
                <path d="M0,0.053C0.602,0.051 1.189,0.036 1.783,0.027C1.192,0.017 0.603,0.018 0.011,0C0.008,0.018 0.003,0.035 0,0.053" style="fill:white;fill-rule:nonzero;"/>
            </g>
            <g transform="matrix(1,0,0,1,849.319,481.47)">
                <path d="M0,67.788C-3.894,58.266 -21.181,28.246 -80.088,41.692C-104.759,47.324 -125.842,51.063 -143.416,53.528C-107.433,31.972 -86.492,2.884 -83.362,-30.92C-79.653,-70.97 -88.17,-96.057 -96.005,-113.44C-106.783,-137.351 -114.37,-159.191 -119.197,-180.206C-119.461,-181.353 -119.743,-182.532 -120.048,-183.755C-101.266,-198.767 -88.517,-219.154 -84.109,-241.26C-79.558,-264.087 -84.398,-286.011 -97.738,-302.992C-111.078,-319.973 -131.232,-329.867 -154.488,-330.85C-176.597,-331.777 -198.98,-324.524 -217.793,-310.367C-252.868,-329.147 -295.661,-339.443 -338.949,-339.443C-382.237,-339.443 -425.03,-329.147 -460.105,-310.367C-478.918,-324.523 -501.299,-331.781 -523.411,-330.85C-546.667,-329.867 -566.82,-319.973 -580.16,-302.992C-607.243,-268.516 -597.202,-215.21 -557.851,-183.755C-558.155,-182.533 -558.437,-181.355 -558.702,-180.206C-563.528,-159.194 -571.114,-137.355 -581.894,-113.44C-589.728,-96.057 -598.245,-70.97 -594.536,-30.92C-589.703,21.289 -542.869,61.438 -464.992,81.042C-483.571,89.611 -514.567,102.053 -559.937,114.642C-579.621,120.102 -594.663,128.4 -604.645,139.304C-614.198,149.739 -618.524,161.971 -617.154,174.675C-614.101,202.991 -583.514,225.127 -544.425,227.311C-523.505,228.48 -501.772,220.915 -479.633,204.788C-484.662,254.011 -473.079,286.436 -465.827,306.738L-464.911,309.307C-458.732,326.72 -443.265,357.558 -431.376,380.362C-424.11,394.302 -410.403,403.296 -394.71,404.424L-366.711,406.435C-355.595,407.231 -345.205,401.803 -339.579,392.263C-335.86,385.961 -331.269,376.338 -328.792,364.195C-328.914,364.195 -329.03,364.2 -329.153,364.2C-331.722,364.2 -334.211,364.122 -336.629,363.985C-338.861,374.106 -342.684,382.354 -346.218,388.345C-350.334,395.323 -358.078,399.326 -366.159,398.746L-394.158,396.734C-407.06,395.808 -418.561,388.268 -424.54,376.798C-435.156,356.435 -451.434,324.234 -457.645,306.729C-465.44,284.762 -480.166,247.16 -469.249,186.389C-490.892,205.897 -516.767,221.135 -543.995,219.614C-615.849,215.6 -640.344,144.951 -557.876,122.07C-492.917,104.048 -456.887,86.211 -444.507,79.446C-443.86,78.969 -443.178,78.537 -442.486,78.121C-536.126,60.159 -582.357,17.003 -586.86,-31.631C-590.202,-67.729 -583.373,-91.394 -574.865,-110.271C-564.951,-132.265 -556.589,-154.967 -551.188,-178.48C-550.54,-181.299 -549.833,-184.059 -549.093,-186.787C-550.196,-187.583 -551.291,-188.4 -552.372,-189.25C-589.03,-218.047 -598.757,-266.839 -574.098,-298.229C-549.438,-329.62 -499.731,-331.722 -463.073,-302.924C-462.328,-302.339 -461.612,-301.733 -460.89,-301.132C-422.559,-322.897 -378.317,-331.733 -338.949,-331.733C-299.581,-331.733 -255.34,-322.897 -217.009,-301.132C-216.286,-301.733 -215.57,-302.339 -214.826,-302.924C-178.167,-331.722 -128.46,-329.62 -103.801,-298.229C-79.142,-266.839 -88.869,-218.047 -125.527,-189.25C-126.608,-188.4 -127.703,-187.583 -128.806,-186.787C-128.066,-184.059 -127.358,-181.299 -126.711,-178.48C-121.31,-154.967 -112.947,-132.265 -103.034,-110.271C-94.525,-91.394 -87.696,-67.729 -91.039,-31.631C-94.7,7.909 -125.948,43.827 -187.822,65.532C-167.732,64.671 -131.166,61.26 -78.372,49.207C6.395,29.857 18.792,105.039 -43.443,143.372C-91.895,173.215 -169.56,136.908 -201.59,119.359C-198.113,126.119 -194.943,133.576 -192.165,141.831C-162.656,229.488 -182.618,279.825 -192.165,306.729C-198.376,324.234 -214.654,356.435 -225.27,376.798C-231.249,388.268 -242.75,395.808 -255.651,396.734L-283.651,398.746C-291.732,399.326 -299.475,395.323 -303.592,388.345C-307.214,382.205 -311.141,373.695 -313.347,363.225C-317.621,363.76 -322.178,364.09 -327.009,364.168C-325.016,364.201 -323.025,364.201 -321.03,364.142C-318.555,376.31 -313.954,385.952 -310.232,392.262C-304.968,401.184 -295.534,406.513 -285.246,406.513C-284.534,406.513 -283.818,406.487 -283.098,406.435L-255.099,404.424C-239.407,403.296 -225.7,394.302 -218.434,380.362C-206.545,357.558 -191.078,326.72 -184.899,309.307L-183.974,306.711C-173.996,278.784 -155.426,226.802 -184.858,139.371C-185.244,138.225 -185.64,137.086 -186.045,135.956C-147.25,154.404 -83.021,176.805 -39.4,149.937C-5.612,129.127 10.958,94.578 0,67.788" style="fill:white;fill-rule:nonzero;"/>
            </g>
            <g transform="matrix(1,0,0,1,534.787,845.67)">
                <path d="M0,-8.151C-3.294,-7.869 -6.748,-7.709 -10.373,-7.709C-13.998,-7.709 -17.451,-7.869 -20.746,-8.151C-21.075,-5.39 -21.538,-2.746 -22.097,-0.214C-19.679,-0.077 -17.19,0 -14.621,0C-14.498,0 -14.381,-0.005 -14.259,-0.005C-14.256,-0.023 -14.251,-0.04 -14.248,-0.057C-13.657,-0.04 -13.067,-0.041 -12.477,-0.031C-7.646,-0.109 -3.089,-0.439 1.186,-0.975C0.701,-3.275 0.297,-5.666 0,-8.151" style="fill:white;fill-rule:nonzero;"/>
            </g>
            <g transform="matrix(1,0,0,1,524.415,836.986)">
                <path d="M0,0.974C3.625,0.974 7.079,0.814 10.373,0.532C10.669,3.017 11.074,5.409 11.558,7.708C14.208,7.376 16.747,6.966 19.183,6.495C18.708,4.303 18.313,2.009 18.028,-0.381C17.536,-4.508 13.869,-7.495 9.716,-7.15C5.953,-6.828 2.139,-6.717 -1.667,-6.773C-2.52,-6.754 -3.374,-6.735 -4.248,-6.735C-6.928,-6.735 -9.499,-6.837 -11.983,-7.007C-15.128,-6.335 -17.628,-3.734 -18.029,-0.381C-18.37,2.485 -18.875,5.205 -19.482,7.785C-16.99,8.085 -14.403,8.316 -11.724,8.469C-11.166,5.937 -10.703,3.293 -10.373,0.532C-7.079,0.814 -3.625,0.974 0,0.974" style="fill:white;fill-rule:nonzero;"/>
            </g>
            <g transform="matrix(0.286295,-0.958142,-0.958142,-0.286295,420.313,308.965)">
                <path d="M-20.875,-15.549C-40.17,-15.549 -55.812,-5.795 -55.812,6.237C-55.812,18.27 -40.17,28.025 -20.875,28.024C-1.581,28.025 14.062,18.27 14.062,6.238C14.062,-5.795 -1.58,-15.55 -20.875,-15.549" style="fill-rule:nonzero;"/>
            </g>
            <g transform="matrix(0.286263,-0.958151,-0.958151,-0.286263,418.648,307.653)">
                <path d="M-7.498,-5.585C-13.15,-5.584 -17.73,-2.08 -17.73,2.241C-17.73,6.563 -13.149,10.066 -7.498,10.065C-1.845,10.065 2.735,6.562 2.735,2.24C2.735,-2.082 -1.846,-5.585 -7.498,-5.585" style="fill:white;fill-rule:nonzero;"/>
            </g>
            <g transform="matrix(0.286289,0.958143,0.958143,-0.286289,601.857,304.637)">
                <path d="M20.876,-15.55C40.17,-15.55 55.812,-5.796 55.812,6.237C55.812,18.271 40.17,28.025 20.876,28.025C1.581,28.025 -14.062,18.27 -14.061,6.238C-14.061,-5.796 1.581,-15.55 20.876,-15.55" style="fill-rule:nonzero;"/>
            </g>
            <g transform="matrix(0.286263,0.958151,0.958151,-0.286263,601.465,303.326)">
                <path d="M7.498,-5.585C13.15,-5.584 17.73,-2.081 17.73,2.241C17.73,6.563 13.149,10.066 7.498,10.065C1.845,10.065 -2.735,6.562 -2.735,2.24C-2.735,-2.082 1.846,-5.585 7.498,-5.585" style="fill:white;fill-rule:nonzero;"/>
            </g>
            <g transform="matrix(1,0,0,1,363.668,251.938)">
                <path d="M0,-53.483L-0.405,-53.789C-22.185,-69.546 -50.939,-67.118 -64.501,-48.374C-78.063,-29.629 -71.376,-1.559 -49.595,14.2C-48.883,14.714 -48.164,15.207 -47.438,15.684C-47.056,15.935 -46.613,16.063 -46.168,16.063C-45.861,16.063 -45.552,16.002 -45.262,15.878C-44.548,15.575 -44.036,14.935 -43.894,14.173C-41.51,1.344 -35.602,-11.862 -26.809,-24.016C-19.191,-34.544 -9.967,-43.416 -0.134,-49.672C0.509,-50.081 0.91,-50.78 0.936,-51.542C0.963,-52.303 0.613,-53.03 0,-53.483" style="fill:rgb(244,206,211);fill-rule:nonzero;"/>
            </g>
            <g transform="matrix(1,0,0,1,719.431,250.993)">
                <path d="M0,-43.264C-13.564,-62.009 -42.317,-64.438 -64.099,-48.677L-64.501,-48.373C-65.114,-47.92 -65.464,-47.194 -65.438,-46.432C-65.411,-45.671 -65.011,-44.972 -64.368,-44.562C-54.533,-38.304 -45.309,-29.432 -37.693,-18.905C-28.899,-6.752 -22.992,6.453 -20.607,19.283C-20.466,20.044 -19.953,20.684 -19.241,20.988C-18.949,21.112 -18.642,21.174 -18.333,21.174C-17.889,21.174 -17.447,21.046 -17.065,20.794C-16.339,20.318 -15.619,19.824 -14.906,19.309C6.875,3.551 13.562,-24.519 0,-43.264" style="fill:rgb(244,206,211);fill-rule:nonzero;"/>
            </g>
            <g transform="matrix(1,0,0,1,564.144,393.701)">
                <path d="M0,-34.983C-10.842,-42.426 -30.155,-48.009 -50.146,-48.009C-70.136,-48.009 -89.449,-42.426 -100.292,-34.983C-111.134,-27.54 -112.489,-16.375 -100.292,-5.21C-88.094,5.955 -65.054,13.026 -50.146,13.026C-35.237,13.026 -12.197,5.955 0,-5.21C12.198,-16.375 10.842,-27.54 0,-34.983" style="fill-rule:nonzero;"/>
            </g>
            <g transform="matrix(1,0,0,1,490.341,393.468)">
                <path d="M0,64.899C-13.089,64.899 -24.552,56.981 -25.816,56.078C-29.281,53.604 -30.083,48.788 -27.609,45.323C-25.133,41.858 -20.319,41.057 -16.854,43.531C-16.791,43.576 -8.307,49.48 0,49.48C7.751,49.48 15.948,44.712 15.948,40.204L15.948,7.71C15.948,3.452 19.4,0 23.658,0C27.915,0 31.367,3.452 31.367,7.71L31.367,40.204C31.367,54.976 15.148,64.899 0,64.899" style="fill-rule:nonzero;"/>
            </g>
            <g transform="matrix(1,0,0,1,537.657,393.468)">
                <path d="M0,64.899C-15.148,64.899 -31.367,54.976 -31.367,40.204L-31.367,7.71C-31.367,3.452 -27.915,0 -23.658,0C-19.4,0 -15.948,3.452 -15.948,7.71L-15.948,40.204C-15.948,44.712 -7.751,49.48 0,49.48C8.307,49.48 16.791,43.576 16.875,43.516C20.35,41.072 25.156,41.887 27.613,45.353C30.07,48.817 29.273,53.609 25.816,56.078C24.552,56.981 13.089,64.899 0,64.899" style="fill-rule:nonzero;"/>
            </g>
            <g transform="matrix(0.908515,-0.417852,-0.417852,-0.908515,805.238,588.958)">
                <path d="M-9.37,-1.596C-19.484,-1.138 -27.683,9.387 -27.683,21.911C-27.683,34.435 -19.485,44.214 -9.37,43.754C0.744,43.295 11.409,32.659 11.409,20.135C11.409,7.611 0.744,-2.056 -9.37,-1.596" style="fill:rgb(244,206,211);fill-rule:nonzero;"/>
            </g>
            <g transform="matrix(0.754177,-0.656672,-0.656672,-0.754177,803.259,545.935)">
                <path d="M-5.027,-1.882C-8.587,-1.663 -11.473,1.94 -11.472,6.168C-11.473,10.396 -8.586,13.648 -5.027,13.43C-1.468,13.213 1.417,9.609 1.418,5.38C1.419,1.152 -1.468,-2.099 -5.027,-1.882" style="fill:rgb(244,206,211);fill-rule:nonzero;"/>
            </g>
            <g transform="matrix(1,0,0,1,481.415,847.269)">
                <path d="M0,-0.035C-3.233,-2.565 -10.625,-5.004 -17.461,-5.355C-24.299,-5.707 -31.31,-4.038 -36.964,-0.178C-36.964,-0.178 -27.675,-3.064 -17.666,-1.669C-7.656,-0.273 3.867,5.672 3.867,5.672C3.867,5.672 3.233,2.495 0,-0.035" style="fill:rgb(230,235,239);fill-rule:nonzero;"/>
            </g>
            <g transform="matrix(1,0,0,1,482.582,849.929)">
                <path d="M0,-4.692C-5.161,-8.566 -12.639,-10.076 -18.95,-10.342C-26.09,-10.643 -33.334,-8.805 -39.299,-4.835C-41.391,-3.442 -40.141,0.198 -37.517,-0.608C-24.261,-4.674 -10.464,-1.154 1.532,5.009C3.367,5.951 5.363,4.403 4.93,2.396C4.36,-0.242 2.497,-2.649 0.468,-4.331C-1.808,-6.217 -5.098,-2.962 -2.803,-1.06C-1.333,0.158 0.054,1.702 0.469,3.626C1.602,2.756 2.734,1.885 3.867,1.015C-9.215,-5.706 -24.289,-9.504 -38.746,-5.068C-38.152,-3.659 -37.558,-2.25 -36.964,-0.84C-31.619,-4.399 -25.349,-5.985 -18.95,-5.716C-13.391,-5.482 -6.875,-4.105 -2.335,-0.698C0.047,1.09 2.354,-2.924 0,-4.692" style="fill:rgb(230,235,239);fill-rule:nonzero;"/>
            </g>
            <g transform="matrix(1,0,0,1,567.409,847.269)">
                <path d="M0,-0.035C3.233,-2.565 10.625,-5.004 17.461,-5.355C24.299,-5.707 31.31,-4.038 36.964,-0.178C36.964,-0.178 27.675,-3.064 17.666,-1.669C7.656,-0.273 -3.867,5.672 -3.867,5.672C-3.867,5.672 -3.233,2.495 0,-0.035" style="fill:rgb(230,235,239);fill-rule:nonzero;"/>
            </g>
            <g transform="matrix(1,0,0,1,568.576,845.932)">
                <path d="M0,3.299C4.539,-0.108 11.058,-1.485 16.615,-1.719C23.013,-1.989 29.284,-0.402 34.629,3.156C35.223,1.747 35.817,0.338 36.411,-1.071C21.954,-5.507 6.88,-1.709 -6.202,5.011C-5.069,5.882 -3.937,6.753 -2.805,7.623C-2.389,5.699 -1.001,4.155 0.468,2.937C2.762,1.036 -0.526,-2.221 -2.803,-0.334C-4.833,1.349 -6.695,3.754 -7.265,6.393C-7.699,8.404 -5.698,9.945 -3.867,9.006C8.13,2.842 21.925,-0.678 35.182,3.389C37.782,4.187 39.076,0.568 36.964,-0.838C30.999,-4.808 23.754,-6.646 16.615,-6.345C10.305,-6.079 2.825,-4.568 -2.335,-0.695C-4.687,1.07 -2.384,5.088 0,3.299" style="fill:rgb(230,235,239);fill-rule:nonzero;"/>
            </g>
            <g transform="matrix(-0.0794598,-0.996838,-0.996838,0.0794598,515.026,527.54)">
                <path d="M-30.303,-64.533C-19.8,-93.816 -74.974,-49.473 -74.717,-23.467C-74.46,2.538 -35.215,54.487 -30.303,40.174C-30.303,40.174 -39.965,10.077 -36.854,-19.223C-33.742,-48.522 -30.303,-64.533 -30.303,-64.533" style="fill:rgb(230,235,239);fill-rule:nonzero;"/>
            </g>
            <g transform="matrix(1,0,0,1,477.472,588.688)">
                <path d="M0,-26.938C-1.319,-26.293 -1.758,-25.378 -1.42,-23.997C1.137,-13.543 44.469,12.276 66.831,10.699C83.997,9.502 108.002,-17.921 112.525,-30.877C113.512,-33.703 113.547,-35.723 112.626,-36.566C111.965,-37.171 110.047,-37.82 104.608,-35.365L104.512,-35.329C104.355,-35.282 88.454,-30.556 59.787,-25.18C32.41,-20.044 3.07,-26.255 0,-26.938M64.808,12.31C41.141,12.311 -0.233,-12.657 -2.917,-23.63C-3.449,-25.803 -2.552,-27.516 -0.393,-28.454L-0.158,-28.557L0.091,-28.498C0.398,-28.425 31.045,-21.358 59.502,-26.695C87.301,-31.908 103.04,-36.502 104.022,-36.792C108.823,-38.951 111.979,-39.249 113.667,-37.704C115.112,-36.38 115.218,-33.913 113.98,-30.369C109.226,-16.749 84.982,10.979 66.938,12.238C66.247,12.286 65.534,12.31 64.808,12.31" style="fill:rgb(230,235,239);fill-rule:nonzero;"/>
            </g>
            <g transform="matrix(1,0,0,1,256.86,558.168)">
                <path d="M0,-361.191C-3.614,-333.374 3.444,-304.218 19.393,-281.11C23.303,-275.445 27.716,-270.268 32.393,-265.233C34.193,-263.295 36.547,-261.24 37.21,-258.55C38.163,-254.689 36.49,-249.666 35.727,-245.884C32.694,-230.848 27.79,-216.272 23.015,-201.723C13.583,-172.985 4.758,-143.422 9.897,-112.92C14.45,-85.892 30.286,-61.355 52.084,-45C66.15,-34.446 82.521,-27.407 98.285,-19.835L153.396,6.641C164.08,11.773 173.476,-4.176 162.735,-9.336C133.54,-23.361 103.036,-36.029 74.936,-52.161C51.239,-65.764 34.012,-87.342 28.385,-114.358C22.389,-143.145 32.832,-172.36 41.705,-199.383C46.2,-213.073 50.715,-226.818 53.569,-240.965C54.878,-247.458 56.528,-254.459 55.453,-261.081C54.321,-268.058 50.171,-273.273 45.477,-278.316C24.389,-300.972 14.501,-330.386 18.503,-361.191C20.033,-372.964 1.515,-372.853 0,-361.191" style="fill:rgb(230,235,239);fill-rule:nonzero;"/>
            </g>
            <g transform="matrix(1,0,0,1,254.575,629.475)">
                <path d="M0,23.6C6.255,18.507 14.083,15.699 22.093,15.286C33.941,14.674 34.014,-3.833 22.093,-3.217C8.833,-2.533 -2.823,2.161 -13.083,10.517C-16.96,13.674 -16.363,20.321 -13.083,23.6C-9.25,27.433 -3.887,26.766 0,23.6" style="fill:rgb(230,235,239);fill-rule:nonzero;"/>
            </g>
            <g transform="matrix(1,0,0,1,276.328,658.764)">
                <path d="M0,25.355C1.917,22.006 2.999,20.543 5.698,17.922C8.157,15.536 9.963,14.305 13.339,12.504C17.746,10.153 19.111,4.039 16.659,-0.154C14.051,-4.612 8.424,-5.833 4.001,-3.473C-4.347,0.981 -11.281,7.813 -15.977,16.017C-18.458,20.353 -16.996,26.137 -12.658,28.674C-8.36,31.188 -2.49,29.705 0,25.355" style="fill:rgb(230,235,239);fill-rule:nonzero;"/>
            </g>
            <g transform="matrix(1,0,0,1,242.448,878.44)">
                <path d="M0,-255.511C-11.038,-244.169 -11.669,-226.392 -3.449,-213.161C5.789,-198.291 23.125,-190.779 39.205,-185.825C57.568,-180.169 77.009,-179.384 95.222,-186.021C113.231,-192.584 128.66,-203.848 143.759,-215.385C139.119,-218.048 134.479,-220.71 129.839,-223.373C130.718,-176.073 131.889,-127.161 150.338,-82.838C159.664,-60.434 172.984,-40.06 186.684,-20.127C192.957,-11 199.531,-4.423 210.506,-1.515C222.684,1.711 235.352,3.645 247.692,6.172C259.315,8.552 264.287,-9.279 252.611,-11.67C240.995,-14.049 229.279,-16.147 217.729,-18.823C207.24,-21.254 203.582,-28.056 197.854,-36.581C185.366,-55.164 173.027,-74.232 165.184,-95.322C149.984,-136.192 149.143,-180.306 148.341,-223.373C148.224,-229.68 140.281,-235.839 134.421,-231.362C112.278,-214.444 87.703,-195.944 58.163,-200.328C45.112,-202.265 30.007,-206.929 19.432,-215.139C11.578,-221.238 4.743,-233.858 13.083,-242.428C21.394,-250.966 8.323,-264.063 0,-255.511" style="fill:rgb(230,235,239);fill-rule:nonzero;"/>
            </g>
            <g transform="matrix(1,0,0,1,639.199,869.405)">
                <path d="M0,-263.854C11.461,-221.346 14.234,-176.516 7.697,-132.936C4.374,-110.788 -1.199,-88.964 -8.924,-67.942C-12.741,-57.557 -17.131,-47.407 -22.073,-37.507C-26.481,-28.674 -30.997,-19.065 -38.301,-12.221C-47.056,-4.018 -59.26,-3.684 -70.599,-4.05C-72.986,-4.128 -76.667,-3.624 -78.907,-4.462C-81.212,-5.325 -82.335,-7.839 -83.635,-9.91C-87.287,-15.727 -90.535,-21.837 -93.177,-28.18C-95.111,-32.827 -99.288,-36.031 -104.557,-34.642C-108.925,-33.49 -112.938,-27.87 -111.019,-23.261C-106.484,-12.372 -100.981,2.336 -91.315,9.732C-82.597,16.403 -67.191,15.168 -56.808,14.168C-44.559,12.987 -33.218,8.886 -24.379,0.065C-16.105,-8.191 -10.631,-18.988 -5.513,-29.35C17.597,-76.133 29.607,-128.2 29.612,-180.373C29.616,-210.183 25.6,-239.998 17.842,-268.772C14.745,-280.257 -3.109,-275.384 0,-263.854" style="fill:rgb(230,235,239);fill-rule:nonzero;"/>
            </g>
            <g transform="matrix(1,0,0,1,650.904,559.185)">
                <path d="M0,53.602C22.392,63.659 46.076,70.656 70.15,75.377C93.063,79.871 117.056,81.786 139.785,75.249C159.348,69.623 177.899,57.814 188.251,39.88C198.476,22.166 200.039,1.355 191.711,-17.328C186.873,-28.184 170.924,-18.783 175.735,-7.989C182.163,6.433 178.015,24.098 168.528,36.191C158.059,49.537 141.546,56.721 125.23,59.65C105.762,63.145 85.52,59.996 66.453,55.708C46.976,51.328 27.581,45.819 9.338,37.625C-1.435,32.786 -10.855,48.726 0,53.602" style="fill:rgb(230,235,239);fill-rule:nonzero;"/>
            </g>
            <g transform="matrix(1,0,0,1,668.076,333.792)">
                <path d="M0,218.649C35.143,197.34 65.836,166.432 84.531,129.591C94.336,110.269 98.395,90.39 94.602,68.904C90.747,47.068 80.435,27.003 75.559,5.414C72.937,-6.196 55.094,-1.282 57.717,10.333C62.026,29.412 70.442,47.209 75.121,66.172C80.067,86.219 76.947,104.48 67.316,122.627C49.758,155.713 22.588,183.313 -9.338,202.672C-19.507,208.838 -10.218,224.845 0,218.649" style="fill:rgb(230,235,239);fill-rule:nonzero;"/>
            </g>
            <g transform="matrix(1,0,0,1,741.17,299.245)">
                <path d="M0,-125.67C-1.898,-127.642 -3.863,-129.678 -5.716,-131.813C-9.327,-129.325 -11.596,-124.58 -9.183,-119.538C-1.095,-102.642 2.536,-83.024 -0.953,-64.464C-4.628,-44.913 -16.546,-30.294 -29.445,-15.845C-37.354,-6.987 -24.312,6.143 -16.362,-2.761C-0.788,-20.206 13.443,-38.314 17.331,-62.041C20.059,-78.694 18.543,-95.293 13.715,-111.119C9.223,-116.046 4.625,-120.865 0,-125.67" style="fill:rgb(230,235,239);fill-rule:nonzero;"/>
            </g>
            <g transform="matrix(0.137832,0.990456,0.990456,-0.137832,510.024,761.619)">
                <path d="M54.953,-59.877C77.713,-22.917 83.828,20.903 72.065,62.682C68.845,74.116 51.754,66.997 54.953,55.634C64.726,20.928 59.322,-17.725 40.416,-48.425C34.231,-58.468 48.717,-70.004 54.953,-59.877" style="fill:rgb(230,235,239);fill-rule:nonzero;"/>
            </g>
            <g transform="matrix(1,0,0,1,801.833,412.45)">
                <path d="M0,205.829C-19.136,217.615 -45.807,219.252 -79.277,210.689C-107.279,203.527 -133.409,190.926 -150.399,181.619C-153.371,179.989 -157.057,180.492 -159.484,182.858C-161.91,185.222 -162.509,188.893 -160.959,191.907C-157.565,198.505 -154.545,205.706 -151.985,213.311C-124.26,295.672 -141.659,344.377 -151.007,370.543L-151.944,373.171C-158.135,390.619 -175.074,423.943 -184.62,442.254C-189.394,451.413 -198.402,457.324 -208.718,458.065L-236.717,460.077C-241.932,460.454 -246.832,457.912 -249.465,453.448C-252.506,448.293 -256.246,440.46 -258.322,430.6C-230.986,425.344 -217.025,412.28 -216.306,411.589C-213.246,408.656 -213.146,403.818 -216.062,400.741C-218.977,397.662 -223.847,397.532 -226.943,400.428C-227.124,400.597 -245.458,417.352 -281.662,417.352C-317.672,417.352 -336.003,400.777 -336.377,400.432C-339.453,397.515 -344.31,397.626 -347.248,400.688C-350.194,403.762 -350.092,408.642 -347.02,411.589C-346.231,412.346 -329.562,427.968 -296.798,431.885C-298.919,441.141 -302.464,448.52 -305.372,453.449C-308.006,457.912 -312.906,460.456 -318.12,460.077L-346.119,458.065C-356.434,457.324 -365.443,451.413 -370.218,442.254C-379.764,423.943 -396.703,390.619 -402.894,373.171L-403.819,370.572C-411.484,349.115 -424.312,313.203 -414.175,256.773C-413.592,253.529 -415.136,250.274 -418.017,248.672C-419.189,248.019 -420.479,247.701 -421.762,247.701C-423.625,247.701 -425.474,248.375 -426.925,249.683C-451.268,271.626 -474.525,282.151 -496.079,280.937C-531.788,278.942 -552.416,259.86 -554.337,242.042C-556.354,223.342 -539.154,207.072 -508.328,198.519C-442.708,180.313 -406.042,162.182 -393.324,155.232C-393.021,155.066 -392.729,154.88 -392.451,154.675C-392.092,154.411 -391.641,154.118 -391.033,153.753C-388.292,152.109 -386.851,148.944 -387.408,145.797C-387.966,142.649 -390.409,140.173 -393.547,139.57C-476.767,123.606 -527.12,86.104 -531.697,36.679C-535.073,0.218 -527.406,-22.427 -520.35,-38.083C-509.147,-62.937 -501.245,-85.72 -496.188,-107.733C-495.624,-110.187 -494.962,-112.81 -494.165,-115.751C-493.326,-118.849 -494.494,-122.144 -497.099,-124.021C-498.116,-124.754 -499.126,-125.509 -500.123,-126.293C-533.38,-152.418 -542.542,-196.449 -520.548,-224.446C-510.036,-237.829 -493.957,-245.634 -475.273,-246.424C-456.143,-247.229 -436.634,-240.634 -420.349,-227.842C-419.796,-227.407 -419.261,-226.959 -418.726,-226.511L-418.339,-226.189C-415.872,-224.134 -412.391,-223.822 -409.597,-225.407C-375.985,-244.492 -334.031,-255.004 -291.463,-255.004C-248.895,-255.004 -206.941,-244.492 -173.329,-225.407C-170.54,-223.824 -167.059,-224.133 -164.591,-226.185L-164.182,-226.526C-163.652,-226.969 -163.123,-227.412 -162.577,-227.842C-146.292,-240.635 -126.786,-247.234 -107.652,-246.424C-88.969,-245.634 -72.89,-237.829 -62.377,-224.446C-51.864,-211.064 -48.088,-193.594 -51.745,-175.254C-55.489,-156.472 -66.519,-139.085 -82.804,-126.293C-83.801,-125.509 -84.81,-124.754 -85.827,-124.021C-88.432,-122.144 -89.6,-118.849 -88.761,-115.751C-87.962,-112.806 -87.302,-110.184 -86.738,-107.733C-81.681,-85.715 -73.777,-62.933 -62.576,-38.083C-55.52,-22.427 -47.853,0.218 -51.229,36.679C-54.836,75.633 -87.388,107.808 -142.888,127.277C-146.494,128.542 -148.628,132.257 -147.907,136.009C-147.185,139.761 -143.834,142.406 -140.006,142.255C-118.38,141.328 -81.597,137.712 -29.17,125.745C2.598,118.489 25.92,124.81 33.215,142.646C40.152,159.605 30.97,186.754 0,205.829M47.486,136.808C43.593,127.287 26.305,97.266 -32.602,110.712C-57.273,116.344 -78.356,120.083 -95.93,122.548C-59.946,100.993 -39.006,71.905 -35.876,38.1C-32.167,-1.949 -40.684,-27.037 -48.519,-44.419C-59.297,-68.331 -66.883,-90.17 -71.711,-111.185C-71.975,-112.333 -72.257,-113.512 -72.562,-114.735C-53.779,-129.746 -41.03,-150.134 -36.623,-172.239C-32.072,-195.067 -36.912,-216.99 -50.251,-233.972C-63.592,-250.953 -83.746,-260.846 -107.001,-261.83C-129.11,-262.756 -151.494,-255.504 -170.307,-241.347C-205.382,-260.126 -248.175,-270.422 -291.463,-270.422C-334.75,-270.422 -377.543,-260.126 -412.619,-241.347C-431.432,-255.503 -453.812,-262.761 -475.924,-261.83C-499.18,-260.846 -519.334,-250.953 -532.673,-233.972C-559.757,-199.496 -549.716,-146.189 -510.364,-114.734C-510.669,-113.512 -510.951,-112.334 -511.216,-111.185C-516.042,-90.174 -523.627,-68.335 -534.407,-44.419C-542.242,-27.037 -550.758,-1.949 -547.05,38.1C-542.216,90.309 -495.383,130.458 -417.505,150.063C-436.085,158.632 -467.081,171.074 -512.451,183.662C-532.134,189.122 -547.176,197.421 -557.159,208.325C-566.712,218.76 -571.038,230.991 -569.667,243.696C-566.615,272.012 -536.027,294.148 -496.939,296.332C-476.019,297.501 -454.286,289.935 -432.146,273.808C-437.175,323.031 -425.592,355.456 -418.34,375.758L-417.424,378.327C-411.246,395.741 -395.778,426.579 -383.89,449.382C-376.624,463.322 -362.917,472.317 -347.224,473.445L-319.225,475.456C-308.109,476.251 -297.719,470.823 -292.092,461.283C-288.369,454.973 -283.769,445.331 -281.294,433.162C-278.707,433.239 -276.13,433.239 -273.543,433.162C-271.068,445.33 -266.468,454.972 -262.746,461.283C-257.481,470.205 -248.047,475.533 -237.76,475.533C-237.048,475.533 -236.332,475.507 -235.612,475.456L-207.612,473.445C-191.921,472.317 -178.214,463.322 -170.947,449.382C-159.059,426.579 -143.591,395.741 -137.413,378.327L-136.487,375.731C-126.51,347.804 -107.939,295.822 -137.372,208.392C-137.758,207.245 -138.154,206.107 -138.559,204.976C-99.764,223.424 -35.535,245.825 8.086,218.957C41.874,198.147 58.444,163.599 47.486,136.808" style="fill-rule:nonzero;"/>
            </g>
            <g transform="matrix(0.90853,-0.41782,-0.41782,-0.90853,825.174,563.07)">
                <path d="M-4.013,-0.879C-7.628,-0.715 -10.559,3.718 -10.559,9.022C-10.56,14.326 -7.629,18.492 -4.013,18.328C-0.397,18.165 2.534,13.732 2.534,8.428C2.534,3.124 -0.397,-1.043 -4.013,-0.879" style="fill:rgb(244,206,211);fill-rule:nonzero;"/>
            </g>
            <g transform="matrix(0.944739,0.327823,0.327823,-0.944739,814.235,585.556)">
                <path d="M1.731,-0.292C-0.62,-0.283 -2.526,2.088 -2.526,5.004C-2.526,7.921 -0.62,10.277 1.731,10.269C4.082,10.259 5.988,7.888 5.988,4.972C5.988,2.055 4.082,-0.301 1.731,-0.292" style="fill:rgb(244,206,211);fill-rule:nonzero;"/>
            </g>
        </g>
    </g>
</svg>
