<?xml version="1.0" encoding="utf-8"?>
<!-- Generator: Adobe Illustrator 24.1.0, SVG Export Plug-In . SVG Version: 6.00 Build 0)  -->
<svg version="1.1" id="Layer_1" xmlns="http://www.w3.org/2000/svg" xmlns:xlink="http://www.w3.org/1999/xlink" x="0px" y="0px"
	 viewBox="0 0 800 800" style="enable-background:new 0 0 800 800;" xml:space="preserve">
<style type="text/css">
	.st0{fill:#FFFFFF;}
	.st1{fill:#F2CCD1;}
	.st2{fill:#E4E9ED;}
	.st3{fill:#B11F1F;}
	.st4{fill:#D02A2A;}
	.st5{fill:#DFDFDF;}
	.st6{fill:#AEAEAE;}
	.st7{fill:#F3F3F3;}
	.st8{fill:none;}
	.st9{fill:none;stroke:#000000;stroke-width:10;stroke-linecap:round;stroke-linejoin:round;stroke-miterlimit:10;}
	.st10{opacity:0.13;fill:#FFFFFD;}
	.st11{fill:#DADADA;}
	.st12{fill:#9F5D6B;}
	.st13{fill:#DFA9B2;}
	.st14{fill:#6D7172;}
	.st15{fill:#C3C3C3;}
	.st16{fill:#D2D5DC;}
	.st17{fill:#F6F6F6;}
	.st18{fill:#B3E6F8;}
	.st19{fill:#F1F1F1;}
	.st20{fill:#B2E1FF;}
	.st21{opacity:0.49;fill:#DBE6EE;}
</style>
<g>
	<path class="st0" d="M407.164917,494.117218v115.6318665c1.0136719,0,2.8598633-0.0183105,4.8251953-0.0488281V494.117218
		c0-22.4853516,11.765625-41.0146484,34.0244141-53.5849609c16.3242188-9.2197266,32.4482422-11.9580078,33.1269531-12.0703125
		c0.0112305-0.0019531,0.0219727-0.0014648,0.0332031-0.003418c0.0048828-0.0004883,0.0087891-0.0026855,0.0136719-0.003418
		c0.0600586-0.0092773,0.1201172-0.0136719,0.1806641-0.0224609c45.9345703-11.4953613,74.6938477-35.7565918,77.4814453-65.8613281
		c2.1894531-23.6464844-2.7822266-38.3330078-7.359375-48.4863281
		c-7.2636719-16.1142578-12.3896484-30.8896484-15.6699219-45.1728516c-0.3662109-1.59375-0.7949219-3.2939453-1.3115234-5.1972656
		c-0.5439453-2.0078125,0.2119141-4.1425781,1.8974609-5.3613281c0.6611328-0.4775391,1.3173828-0.9677734,1.9658203-1.4765625
		c21.5683594-16.9433441,27.5107422-45.5009613,13.2480469-63.6581879
		c-14.2646484-18.1582031-43.4160156-19.1455078-64.9853516-2.2021484c-0.3496094,0.2744141-0.6875,0.5576172-1.0263672,0.8398438
		l-0.2822266,0.2353516c-1.5996094,1.3291016-3.8564453,1.5302734-5.6650391,0.5029297
		c-21.7998047-12.3779297-49.0087891-19.1943359-76.6152344-19.1943359c-27.6074219,0-54.8164062,6.8164062-76.6162109,19.1943359
		c-1.8076172,1.0273438-4.0654297,0.828125-5.6650391-0.5029297l-0.2958984-0.2460938
		c-0.3320312-0.2773438-0.6650391-0.5556641-1.0087891-0.8251953c-9.9853516-7.8447266-21.8339844-12.0986328-33.5810547-12.0986328
		c-0.6816406,0-1.3623047,0.0136719-2.0439453,0.0429688c-12.1171875,0.5126953-22.5449219,5.5742188-29.3632812,14.2539062
		c-14.2636719,18.1572266-8.3212891,46.7138672,13.2470703,63.6581879c0.6474609,0.5087891,1.3027344,0.9980469,1.9638672,1.4746094
		c1.6875,1.21875,2.4443359,3.3544922,1.9003906,5.3632812c-0.515625,1.8984375-0.9443359,3.5996094-1.3134766,5.2001953
		c-3.2773438,14.2753906-8.4033203,29.0517578-15.6689453,45.1699219
		c-4.5761719,10.1542969-9.5488281,24.8427734-7.359375,48.4863281
		c2.5517578,27.5537109,25.0078125,59.0517578,80.3837891,64.8203125c3.8691406,0.4023438,5.7470703,0.5556641,6.9892578,0.6572266
		c1.6850586,0.1369629,2.2207031,0.1879883,3.9814453,0.5114746c3.3188477,0.5793457,18.7792969,3.5974121,34.4306641,11.9094238
		C394.6688232,453.023468,407.164917,471.5752258,407.164917,494.117218z"/>
	<path class="st0" d="M515.0906982,469.1719055c-7.1347656-16.7653809-17.3901367-27.8986816-27.4829102-30.4609375
		l-11.4301758,38.9775391c-0.6699219,2.2832031-2.8496094,3.7861328-5.2255859,3.5742188l-18.5048828-1.5869141
		l7.6777344,19.7919922c0.4228516,1.0888672,0.4511719,2.2910156,0.0791016,3.3984375l-38.1972656,113.8835754l0.6025391,29.3527832
		c25.7167969,2.5097656,58.2539062-5.0947266,68.734375-7.7998047c0.9003906-17.6088867,1.2314453-33.921875,1.2568359-48.1210938
		h-45.3037109c-1.9326172,0-3.5-1.5673828-3.5-3.5v-14.2792969c0-1.9326172,1.5673828-3.5,3.5-3.5h17.6674805
		c-3.1230469-4.0244141-5.8256836-9.7478027-6.8076172-17.8481445c-1.1298828,0.1542969-1.7773438,0.2585449-1.8286133,0.2670898
		c-1.7568359,0.2890625-3.5400391-0.375-4.6757812-1.75c-1.1347656-1.375-1.4521484-3.2509766-0.8320312-4.921875
		c0.0732422-0.1992188,7.4404297-20.09375,11.7978516-35.3125305c0.7587891-2.6542969,3.5234375-4.1904297,6.1826172-3.4306641
		c2.6552734,0.7597656,4.1914062,3.5283203,3.4306641,6.1826477c-2.7802734,9.7109375-6.6464844,20.984375-9.2421875,28.3066406
		c8.7290039-0.8876953,23.1464844-1.7265625,37.6767578,0.1430664c0.0517578,0.0068359,0.1040039,0.0129395,0.1557617,0.0195312
		c0.5834961,0.0759277,1.1665039,0.1572266,1.75,0.2421875c0.1411133,0.0205078,0.2817383,0.0400391,0.4228516,0.0610352
		c0.5087891,0.0756836,1.0166016,0.1567383,1.5244141,0.2397461c0.2099609,0.0341797,0.4194336,0.067627,0.6293945,0.1030273
		c0.449707,0.0761719,0.8984375,0.1572266,1.347168,0.2392578c0.2617188,0.0478516,0.5239258,0.0949707,0.7851562,0.1447754
		c0.4086914,0.078125,0.8164062,0.1604004,1.2241211,0.2436523c0.293457,0.0598145,0.5869141,0.1193848,0.8798828,0.1818848
		c0.3823242,0.081543,0.7631836,0.1674805,1.144043,0.2539062c0.3125,0.0708008,0.625,0.1416016,0.9365234,0.2158203
		c0.3652344,0.0869141,0.7285156,0.1777344,1.0917969,0.269043c0.3203125,0.0805664,0.6401367,0.1611328,0.9589844,0.2451172
		c0.3579102,0.0944824,0.7138672,0.1928711,1.0698242,0.2919922c0.3173828,0.0881348,0.6347656,0.1767578,0.9501953,0.2687988
		c0.3579102,0.104248,0.7138672,0.2126465,1.0693359,0.3217773c0.3066406,0.0942383,0.612793,0.1887207,0.9174805,0.2866211
		c0.362793,0.1164551,0.7231445,0.2370605,1.0830078,0.3588867c0.2900391,0.0983887,0.5800781,0.1970215,0.8681641,0.2988281
		c0.3710938,0.1311035,0.7392578,0.2661133,1.1069336,0.4030762c0.2705078,0.1008301,0.5405273,0.2021484,0.809082,0.3061523
		c0.3798828,0.1474609,0.7568359,0.2990723,1.1328125,0.453125c0.1445312,0.059082,0.2919922,0.1140137,0.4360352,0.1743164
		c0.0180664,0.0075684,0.0327148,0.0202637,0.0507812,0.0280762c0.2558594,0.1071777,0.5151367,0.2092285,0.7685547,0.3195801
		C532.3582764,514.2227173,524.9285889,492.289093,515.0906982,469.1719055z"/>
	<path class="st0" d="M496.0311279,567.3018188l-18.4580078-0.3105469
		c-5.1669922-3.064209-8.4453125-8.9755859-9.4702148-16.9833984c1.715332-0.1333008,3.5727539-0.2539062,5.5424805-0.3493652
		c0.2836914-0.0134277,0.5654297-0.0270996,0.8544922-0.0393066c0.2426758-0.0107422,0.4853516-0.0214844,0.730957-0.03125
		c10.9741211-0.4221191,25.590332,0.0009766,38.0356445,3.7265625
		C508.2918701,559.859436,502.3280029,564.7197876,496.0311279,567.3018188z"/>
	<path class="st0" d="M440.2244873,475.8174133c-0.625-1.609375-0.375-3.4257812,0.6601562-4.8076172
		c1.0351562-1.3808594,2.7080078-2.1367188,4.4287109-1.9824219l22.4189453,1.9228516l8.9462891-30.5061035
		c-0.1054688-0.4040527-0.2075195-0.7954102-0.3027344-1.1569824c-5.5878906,1.3818359-15.7060547,4.4111328-25.6738281,10.0820312
		c-19.0517578,10.8388672-28.7119141,25.8945312-28.7119141,44.7480469v91.2366028l28.1582031-83.9543762L440.2244873,475.8174133z"
		/>
	<path class="st0" d="M450.7967529,583.1817017h41.7915039c-0.0131836-2.5070801-0.0351562-4.9348145-0.0649414-7.2792969
		h-41.7265625V583.1817017z"/>
	<path class="st2" d="M482.6695862,436.5377197c-3.3527832,13.7346802-5.5948792,27.7226868-8.9476624,41.4573975
		c1.4464111-1.1012573,2.8928223-2.2024841,4.3392334-3.3037415c-8.4220581,0.7633667-17.1400146-0.9782715-25.2614136-3.0938721
		c-3.4362183-0.8951111-6.2740479,2.2017517-5.5355225,5.535553c1.1575928,5.2253723,2.5046997,10.4004822,4.1222229,15.503479
		c0.8286438,2.6142273,2.6056824,5.8206482,2.896698,8.5297546c0.2929993,2.7277832-1.6072388,5.9420776-2.5709229,8.3609009
		c-4.3171387,10.835907-8.7193604,21.6423645-12.8779602,32.5403748
		c-7.23172,18.951355-13.6349182,38.2035522-20.9523315,57.1242065c-2.0905457,5.4055176,6.6079407,7.7463379,8.6784973,2.3925171
		c7.744751-20.0255737,14.4785461-40.4206543,22.2279053-60.4433594
		c4.3557129-11.2542114,9.1916504-22.3455811,13.3726501-33.6644897c2.1178284-5.733429,0.2796936-9.9712219-1.5483398-15.535553
		c-1.85672-5.6514893-3.3835754-11.3938599-4.6698914-17.2004089c-1.8451843,1.8451843-3.6903687,3.6903687-5.535553,5.535553
		c8.8126831,2.2956848,18.5167236,4.2435303,27.6539612,3.4153442c1.9463501-0.1763916,3.8426208-1.269165,4.3392639-3.3037109
		c3.3527832-13.7347107,5.5948792-27.7226868,8.9476624-41.4573975
		C492.7213135,433.3048706,484.0446472,430.9047241,482.6695862,436.5377197L482.6695862,436.5377197z"/>
	<g>
		<path class="st0" d="M462.7681885,545.4602661c0.7529297,36.7009888,38.2618713,38.3083496,58.2592773,5.3134766
			C501.7849121,542.7147827,475.3696289,544.1437378,462.7681885,545.4602661z"/>
	</g>
	<path class="st2" d="M448.6444092,595.1687622c1.0810547,0,2.1621094,0,3.2431641,0
		c5.2651367,12.4755859,23.0742188,12.3115234,30.237793,0c2.453125,0,4.90625,0,7.359375,0
		c1.3417969,0,2.3642578-0.4865723,3.0986328-1.2175293c0.0073242-1.2651367,0.0151367-2.5356445,0.0170898-3.7695312h-45.3037109
		c-1.1391602,0-2.1411133-0.5527344-2.7802734-1.3955078C443.524292,591.4927368,444.8934326,595.1687622,448.6444092,595.1687622z"
		/>
	<rect x="447.2964478" y="572.402771" class="st0" width="49.6716423" height="14.2787371"/>
	<g>
		<path d="M515.5584717,259.789093c-0.2578125-5.9921722-5.3691406-10.6464691-11.3339844-10.3964691
			c-0.0009766,0-0.0009766,0-0.0009766,0l-65.1728516,2.8183594c-8.2744141,0.3564453-14.7158203,7.3798676-14.3583984,15.6552582
			l0.1000977,2.310791c-5.2797852-2.4621582-13.4174805-3.4804688-24.2280273-3.0109863
			c-15.7202148,0.6799316-24.7133789,3.9318848-29.6035156,6.6860352l-0.3369141-7.7983398
			c-0.2597656-5.9921875-5.3476562-10.6464691-11.3359375-10.394516l-65.1728516,2.8173676
			c-8.2744141,0.3583984-14.7158203,7.3808594-14.3583984,15.65625l1.3251953,30.6318359
			c0.2900391,6.7402344,5.5869141,12.1416016,12.3203125,12.5654297c6.4335938,0.4042969,12.8857422,0.6064453,19.3447266,0.6064453
			c13.6582031-0.0009766,27.3339844-0.9033203,40.8457031-2.703125l7.1191406-0.9472656
			c6.8007812-0.9052734,11.7050781-6.7578125,11.4082031-13.6123047l-0.8549805-19.7861328
			c2.2133789-1.8312988,10.0224609-6.8825684,29.559082-7.7275391c19.6083984-0.8481445,23.7094727,3.7172852,24.2949219,4.5683594
			l0.8984375,20.7705078c0.2900391,6.7402344,5.5869141,12.1416016,12.3203125,12.5644531
			c6.4335938,0.4042969,12.8867188,0.6064453,19.3457031,0.6064453c13.6572266,0,27.3330078-0.9033203,40.8457031-2.7021484
			l7.1181641-0.9482422c6.8007812-0.9052734,11.7050781-6.7578125,11.4082031-13.6123047L515.5584717,259.789093z
			 M359.9197998,308.3388977l-7.1191406,0.9472656c-19.515625,2.5986328-39.3740234,3.2890625-59.0214844,2.0556641
			c-3.6630859-0.2304688-6.5449219-3.1689453-6.703125-6.8359375l-1.3251953-30.6318359
			c-0.2138672-4.9697266,3.6542969-9.1884766,8.6240234-9.4033203l65.1728516-2.8173828
			c0.0712891-0.0029297,0.1425781-0.0048828,0.2138672-0.0048828c2.5917969,0,4.7548828,2.0507812,4.8681641,4.6650391
			l1.4960938,34.6201172C366.2869873,304.6621399,363.6190186,307.8457336,359.9197998,308.3388977z M504.8543701,302.0722961
			l-7.1171875,0.9482422c-19.5166016,2.5976562-39.3720703,3.2900391-59.0234375,2.0546875
			c-3.6630859-0.2294922-6.5439453-3.1679688-6.7021484-6.8349609l-1.3251953-30.6328125
			c-0.2138672-4.9697266,3.6533203-9.1875,8.6230469-9.4023438l65.1738281-2.8183441
			c1.296875-0.0527344,2.5458984,0.3984375,3.5058594,1.2783051c0.9599609,0.8798828,1.5185547,2.0810547,1.5751953,3.3828125
			l1.4970703,34.6191406C511.2225342,298.3955383,508.5545654,301.5791321,504.8543701,302.0722961z"/>
		<path class="st2" d="M400.8240967,273.1601868c-19.5366211,0.8449707-27.3457031,5.8962402-29.559082,7.7275391
			l0.1274414,2.9455566c0.0615234-0.0432129,0.1254883-0.0725098,0.1865234-0.1210938
			c7.3916016-5.9013672,18.2324219-6.1623535,27.206543-6.0878906c8.8896484,0.0737305,18.159668-0.4677734,26.4682617,3.2177734
			l-0.1347656-3.1135254C424.5335693,276.8774719,420.4324951,272.3120422,400.8240967,273.1601868z"/>
		<path class="st2" d="M312.7469482,317.936554c-6.4589844,0-12.9111328-0.2021484-19.3447266-0.6064453
			c-1.3857422-0.0871582-2.7060547-0.3955078-3.9389648-0.8730469c0.4536133,0.3901367,0.9291992,0.7687988,1.4335938,1.1333008
			c7.4047852,5.3498535,17.3730469,6.5041504,26.3032227,6.1816406c13.3330078-0.4812012,27.0922852-2.9238281,39.1088867-8.8999023
			l-2.7163086,0.3613281C340.0809326,317.0332336,326.4051514,317.9355774,312.7469482,317.936554z"/>
		<path class="st2" d="M505.6473389,308.0195618l-7.1181641,0.9482422
			c-13.5126953,1.7988281-27.1884766,2.7021484-40.8457031,2.7021484c-6.4589844,0-12.9121094-0.2021484-19.3457031-0.6064453
			c-1.2578125-0.0791016-2.4648438-0.3322754-3.5991211-0.7348633c4.4521484,3.5297852,10.1704102,5.4001465,16.3452148,6.2392578
			c13.5966797,1.847168,28.2753906-0.326416,41.824707-1.909668c9.7866211-1.1435547,21.1352539-4.723877,23.5527344-15.7253418
			C514.9803467,303.6914368,510.8812256,307.3227844,505.6473389,308.0195618z"/>
		<path class="st10" d="M359.7615967,261.648468c-0.0712891,0-0.1425781,0.0019531-0.2138672,0.0048828l-65.1728516,2.8173828
			c-4.9697266,0.2148438-8.8378906,4.4335938-8.6240234,9.4033203l1.3251953,30.6318359
			c0.1582031,3.6669922,3.0400391,6.6054688,6.703125,6.8359375c19.6474609,1.2333984,39.5058594,0.5429688,59.0214844-2.0556641
			l7.1191406-0.9472656c3.6992188-0.4931641,6.3671875-3.6767578,6.2060547-7.4052734l-1.4960938-34.6201172
			C364.5164795,263.6992493,362.3533936,261.648468,359.7615967,261.648468z"/>
		<path class="st10" d="M507.9891357,256.6650696c-0.9599609-0.8798676-2.2089844-1.3310394-3.5058594-1.2783051
			l-65.1738281,2.8183441c-4.9697266,0.2148438-8.8369141,4.4326172-8.6230469,9.4023438l1.3251953,30.6328125
			c0.1582031,3.6669922,3.0390625,6.6054688,6.7021484,6.8349609c19.6513672,1.2353516,39.5068359,0.5429688,59.0234375-2.0546875
			l7.1171875-0.9482422c3.7001953-0.4931641,6.3681641-3.6767578,6.2070312-7.4052734l-1.4970703-34.6191406
			C509.5076904,258.7461243,508.9490967,257.5449524,507.9891357,256.6650696z"/>
	</g>
	
		<ellipse transform="matrix(0.2862896 -0.9581431 0.9581431 0.2862896 -33.8531418 530.2338257)" cx="338.9880066" cy="287.8405151" rx="22.6581612" ry="14.1301517"/>
	
		<ellipse transform="matrix(0.2862896 -0.9581431 0.9581431 0.2862896 -23.0096397 527.9490356)" class="st0" cx="342.8761292" cy="279.4195557" rx="6.6364584" ry="5.0749388"/>
	
		<ellipse transform="matrix(0.9581431 -0.2862896 0.2862896 0.9581431 -61.2555504 144.379837)" cx="463.1317139" cy="281.6755981" rx="14.1301517" ry="22.6581612"/>
	
		<ellipse transform="matrix(0.9581431 -0.2862896 0.2862896 0.9581431 -59.0632858 142.5323792)" class="st0" cx="457.9097595" cy="273.2546082" rx="5.0749388" ry="6.6364584"/>
	<g>
		<path class="st1" d="M305.9023132,199.9971008l-0.2626953-0.1987305
			c-14.1254883-10.2192383-32.7739258-8.6445312-41.5698242,3.512207
			c-8.7954102,12.1567383-4.4584961,30.3618164,9.6674805,40.5820312c0.4619141,0.3339844,0.9282227,0.6533203,1.3989258,0.9624023
			c0.2480469,0.1630859,0.5351562,0.246582,0.8237305,0.246582c0.1992188,0,0.3994141-0.0395508,0.5878906-0.1201172
			c0.4624023-0.1967773,0.7949219-0.6118164,0.8867188-1.105957c1.5463867-8.3203125,5.3779297-16.8852539,11.0810547-24.7675781
			c4.9399414-6.8276367,10.9223633-12.581543,17.2998047-16.6391602c0.4169922-0.2651367,0.6767578-0.71875,0.6938477-1.2128906
			C306.526825,200.7622375,306.2997742,200.2910461,305.9023132,199.9971008z"/>
		<path class="st1" d="M536.6333008,206.0117493c-8.796875-12.1572266-27.4448547-13.7324219-41.5713196-3.5107422
			l-0.2612305,0.1972656c-0.3974609,0.2939453-0.6245117,0.7646484-0.6069336,1.2587891
			c0.0170898,0.4936523,0.2768555,0.9472656,0.6938477,1.2128906c6.378418,4.0585938,12.3608398,9.8125,17.2998352,16.6396484
			c5.703125,7.8818359,9.534668,16.4462891,11.0810547,24.7670898c0.0917969,0.4936523,0.4243164,0.9086914,0.8862305,1.105957
			c0.1889648,0.0805664,0.3886719,0.1201172,0.5883789,0.1201172c0.2880859,0,0.574707-0.0830078,0.8227539-0.2460938
			c0.4707031-0.3085938,0.9379883-0.6289062,1.3999023-0.9628906
			C541.0917969,236.3735657,545.4287109,218.1684875,536.6333008,206.0117493z"/>
	</g>
	<path class="st0" d="M277.3026123,542.7598267c7.0087891-1.0205078,25.828125-4.6914062,41.3144531-16.1171875
		c1.6044922-1.1826172,3.7539062-1.3007812,5.4765625-0.3017578s2.6884766,2.9248047,2.4589844,4.9023438
		c-0.03125,0.270752-1.7021484,14.942627-2.7421875,37.6591797h44.8720703c1.9326172,0,3.5,1.5673828,3.5,3.5v14.2792969
		c0,1.9326172-1.5673828,3.5-3.5,3.5h-45.5556641c-0.2685547,14.5488281-0.1601562,30.9345703,0.6884766,48.1396484
		c11.0273438,2.9052734,46.5751953,11.4101562,72.7275391,7.9443359l0.6054688-29.515625l-38.1972656-113.8838196
		c-0.3720703-1.1074219-0.34375-2.3095703,0.0791016-3.3984375l7.6777344-19.7919922l-18.5048828,1.5869141
		c-2.3779297,0.2050781-4.5556641-1.2919922-5.2255859-3.5742188l-10.5922852-36.119873
		c-14.2841797,10.1672363-51.25,35.9382324-69.4624023,43.5993652
		C262.6317139,494.108429,263.0897217,521.0723267,277.3026123,542.7598267z"/>
	<path class="st0" d="M365.1824951,575.9024048h-41.6601562c-0.0869141,2.3591309-0.1660156,4.7856445-0.234375,7.2792969
		h41.8945312V575.9024048z"/>
	<path class="st0" d="M373.8416748,469.0273743c1.7207031-0.15625,3.3935547,0.6005859,4.4287109,1.9824219
		s1.2851562,3.1982422,0.6601562,4.8076172l-9.9238281,25.5820312l28.1582031,83.9543762V494.117218
		c0-35.5561523-37.9018555-49.5405273-54.7851562-54.0043945l9.0429688,30.8374023L373.8416748,469.0273743z"/>
	<path class="st0" d="M252.8719482,505.7783508c-2.9580078,5.6845703-3.7919922,11.3769836-2.3457031,16.6474915
		c1.3681641,4.9873047,4.7617188,9.3886719,9.625,12.7353516
		C256.1619873,524.9805298,253.9940186,514.7959595,252.8719482,505.7783508z"/>
	<path class="st2" d="M260.1512451,535.1611938c-3.9892578-10.1806641-6.1572266-20.3652344-7.2792969-29.382843
		c-0.4887695,0.9394531-0.8974609,1.8781738-1.2695312,2.815918c0.6845703,7.8681946,2.2099609,15.6418762,4.5195312,23.1885071
		C257.3221436,532.9956665,258.6580811,534.1333618,260.1512451,535.1611938z"/>
	<path class="st2" d="M369.05896,595.2788696c4.4433594-0.2102051,5.4672852-5.590332,3.0561523-7.9282227
		c-0.3125,1.6120605-1.7290039,2.8310547-3.4326172,2.8310547h-45.5556641
		c-0.0229492,1.232666-0.0385742,2.496582-0.0556641,3.755127c0.5087891,0.1831055,1.0830078,0.2856445,1.7431641,0.2553711
		C339.5892334,593.5139771,354.2835693,595.9780884,369.05896,595.2788696z"/>
	<path class="st2" d="M359.0301514,499.467804l7.6777344-19.7919922l-18.5048828,1.5869141
		c-2.3779297,0.2050781-4.5556641-1.2919922-5.2255859-3.5742188l-10.0527344-34.2797852
		c-0.2714844,0.7431641-0.3505859,1.5986328-0.1455078,2.5488281c2.4091797,11.171875,4.8188477,22.34375,7.2285156,33.5153809
		c0.4516602,2.0935059,2.4272461,3.0837402,4.3393555,3.3037109c0.784668,0.090332,1.5688477,0.1806641,2.3535156,0.270752
		c-0.0830078,0.4150391-0.1269531,0.8581543-0.0756836,1.3620605c1.0449219,10.223877,2.0893555,20.447998,3.1337891,30.6719055
		c0.4316406,4.2253418,5.4755859,5.3459473,7.828125,3.3061523c2.7553711,8.4643555,6.3242188,16.8273926,9.4165039,24.9963379
		c8.2241211,21.7260742,17.2797852,43.1328125,27.0703125,64.1987305l-35.1225586-104.7163391
		C358.5789795,501.7588196,358.6072998,500.5566711,359.0301514,499.467804z M356.3758545,491.756134
		c-0.2504883-2.4489746-0.5004883-4.8977051-0.7509766-7.3466797c-0.012207-0.1218262-0.0493164-0.2260742-0.0693359-0.3427734
		c1.2114258,0.1394043,2.4233398,0.2788086,3.6347656,0.4182129
		C358.3616943,486.941925,357.3201904,489.3193665,356.3758545,491.756134z"/>
	<path d="M558.6082764,309.9756165c-6.9902344-15.5058594-11.9091797-29.6699219-15.0410156-43.3017578
		c-0.1708984-0.7451172-0.3544922-1.5097656-0.5517578-2.3017578c25.5205078-20.3993988,32.0332031-54.9716644,14.46875-77.3310394
		c-17.40625-22.1582031-52.0664062-24.1835938-77.8613281-4.7832031
		c-22.7490234-12.1796875-50.5029297-18.8574219-78.5761719-18.8574219c-28.0742188,0-55.828125,6.6777344-78.5771484,18.8574219
		c-12.2001953-9.1806641-26.71875-13.8789062-41.0556641-13.2841797
		c-15.0830078,0.6376953-28.1533203,7.0546875-36.8046875,18.0673828
		c-17.5644531,22.359375-11.0527344,56.9316406,14.46875,77.3310394c-0.1972656,0.7910156-0.3808594,1.5546875-0.5527344,2.3017578
		c-3.1298828,13.6279297-8.0498047,27.7919922-15.0410156,43.3017578
		c-5.0810547,11.2744141-10.6044922,27.5458984-8.1992188,53.5175781
		c1.6289062,17.5986328,10.0302734,34.2880859,23.6552734,46.9931641
		c15.2109375,14.1835938,36.8188477,23.298584,62.612793,26.4853516
		c-17.4145508,12.2392578-51.3012695,35.3662109-65.0268555,39.9414062c-1.8759766,0.625-3.2070312,2.296875-3.3955078,4.2646484
		c-0.0410156,0.4228516-0.300293,3.3591309-0.2915039,7.9711914c-10.9506836,11.3500977-15.2050781,24.0845032-11.956543,35.9233704
		c3.2333984,11.7861328,13.7851562,21.0947266,28.2246094,24.9003906c0.3740234,0.0983887,0.7509766,0.1445312,1.1264648,0.1555176
		c0.2036133,0.2919922,0.3945312,0.5883789,0.6030273,0.8786621c1.0224609,1.4238281,2.7216797,2.2041016,4.4619141,2.0683594
		c0.9658203-0.078125,20.9150391-1.8046875,40.3310547-12.6513672
		c-1.5322266,18.0449219-4.0576172,57.6269531-1.6113281,102.0419922c0.1162109,2.1142578,1.5527344,3.9267578,3.5859375,4.5224609
		c1.6972656,0.4980469,34.8730469,10.0996094,65.2675781,10.0996094c6.7685547,0,13.4013672-0.4765625,19.515625-1.6357422
		c2.3222656-0.4394531,4.0185547-2.4462891,4.0673828-4.8095703l0.6337891-30.8945312
		c0.0219727,0,0.0444336,0.0009766,0.0664062,0.0009766c0.6186523,0,2.6230469-0.0151367,4.9101562-0.0488281l0.6347656,30.9423828
		c0.0498047,2.4404297,1.8554688,4.4882812,4.2695312,4.84375c5.3632812,0.7910156,11.0214844,1.1240234,16.7607422,1.1240234
		c30.0693359,0,62.1992188-9.1533203,63.8007812-9.6162109c2.0419922-0.5888672,3.4892578-2.40625,3.6054688-4.5283203
		c1.4521484-26.3620605,1.6259766-50.0446777,1.3603516-68.4130859c0.6811523,0.0507812,1.3540039,0.1254883,2.0175781,0.2231445
		c6.8510742-3.8430176,13.1499023-9.7275391,18.3227539-17.1328125c0.5249023,0.2768555,1.0444336,0.5593262,1.5512695,0.8549805
		c0.7744141,0.4511719,1.6445312,0.6806641,2.5185547,0.6806641c0.6113281,0,1.2246094-0.1123047,1.8085938-0.3388672
		c1.4189453-0.5498047,2.5097656-1.7177734,2.9638672-3.1699219c12.0712891-38.6425781,3.3935547-64.5820618-7.3876953-89.914093
		c-6.4960938-15.2658691-15.3481445-26.4448242-25.0844727-32.3500977
		c40.0610352-14.1403809,64.7900391-39.0566406,67.6000977-69.4125977
		C569.2127686,337.5185852,563.6893311,321.2480774,558.6082764,309.9756165z M250.5262451,522.4258423
		c-1.4462891-5.2705078-0.6123047-10.9629211,2.3457031-16.6474915c1.1220703,9.0176086,3.2900391,19.202179,7.2792969,29.382843
		C255.2879639,531.8145142,251.8944092,527.413147,250.5262451,522.4258423z M396.5428467,646.265686
		c-26.1523438,3.4658203-61.7001953-5.0390625-72.7275391-7.9443359
		c-0.8486328-17.2050781-0.9570312-33.5908203-0.6884766-48.1396484h45.5556641c1.9326172,0,3.5-1.5673828,3.5-3.5v-14.2792969
		c0-1.9326172-1.5673828-3.5-3.5-3.5h-44.8720703c1.0400391-22.7165527,2.7109375-37.3884277,2.7421875-37.6591797
		c0.2294922-1.9775391-0.7363281-3.9033203-2.4589844-4.9023438s-3.8720703-0.8808594-5.4765625,0.3017578
		c-15.4863281,11.4257812-34.3056641,15.0966797-41.3144531,16.1171875
		c-14.2128906-21.6875-14.6708984-48.6513977-14.3798828-57.5918274
		c18.2124023-7.6611328,55.1782227-33.4321289,69.4624023-43.5993652l10.5922852,36.119873
		c0.5048828,1.720459,1.8676758,2.9926758,3.5263672,3.4277344v32.6982727c0,0.4033203-0.2880859,0.7568359-0.7177734,0.8779297
		c-7.0390625,1.9990234-11.9541016,8.4960938-11.9541016,15.7988281v17.8435059
		c-2.2495117,1.2233887-3.7919922,3.5876465-3.7919922,6.3234863c0,3.9804688,3.2382812,7.21875,7.21875,7.21875
		s7.21875-3.2382812,7.21875-7.21875c0-2.7358398-1.5424805-5.1000977-3.7919922-6.3234863v-17.5212402
		c0-5.0742188,3.8037109-9.4072266,8.6582031-9.8642578c2.7363281-0.2558594,5.3525391,0.6132812,7.3730469,2.4541016
		c1.9960938,1.8164062,3.140625,4.3994141,3.140625,7.0878906v17.8435059
		c-2.2495117,1.2233887-3.7919922,3.5876465-3.7919922,6.3234863c0,3.9804688,3.2382812,7.21875,7.21875,7.21875
		s7.21875-3.2382812,7.21875-7.21875c0-2.7358398-1.5424805-5.1000977-3.7919922-6.3234863V530.491272
		c0-7.3027344-4.9150391-13.7988281-11.9541016-15.7988281c-0.4287109-0.1210938-0.7167969-0.4746094-0.7167969-0.8779297
		v-33.0522766l12.6679688-1.0864258l-7.6777344,19.7919922c-0.4228516,1.0888672-0.4511719,2.2910156-0.0791016,3.3984375
		l38.1972656,113.8838196L396.5428467,646.265686z M323.2879639,583.1817017
		c0.0683594-2.4936523,0.1474609-4.920166,0.234375-7.2792969h41.6601562v7.2792969H323.2879639z M353.9783936,517.4385376
		c5.8164062,1.6523438,9.8789062,7.0195312,9.8789062,13.0527344v12.9433594h-1.1464844V530.491272
		c0-3.4892578-1.484375-6.8427734-4.0722656-9.1992188c-2.3222656-2.1132812-5.2490234-3.2421875-8.3486328-3.2421875
		c-0.4023438,0-0.8076172,0.0195312-1.2138672,0.0576172c-6.3056641,0.59375-11.2441406,6.1748047-11.2441406,12.7060547v12.6210938
		h-1.1464844V530.491272c0-6.0332031,4.0634766-11.4003906,9.8789062-13.0527344
		c1.6708984-0.4736328,2.7929688-1.9296875,2.7929688-3.6240234v-32.1963196h1.8291016v32.1963196
		C351.1864014,515.5088501,352.3084717,516.9649048,353.9783936,517.4385376z M397.164917,585.3538208l-28.1582031-83.9543762
		l9.9238281-25.5820312c0.625-1.609375,0.375-3.4257812-0.6601562-4.8076172s-2.7080078-2.1386719-4.4287109-1.9824219
		l-22.4189453,1.9228516l-9.0429688-30.8374023c16.8833008,4.4638672,54.7851562,18.4482422,54.7851562,54.0043945V585.3538208z
		 M476.3758545,439.2871399c0.0952148,0.3615723,0.1972656,0.7529297,0.3027344,1.1569824l-8.9462891,30.5061035
		l-22.4189453-1.9228516c-1.7207031-0.1542969-3.3935547,0.6015625-4.4287109,1.9824219
		c-1.0351562,1.3818359-1.2851562,3.1982422-0.6601562,4.8076172l9.9238281,25.5820312l-28.1582031,83.9543762V494.117218
		c0-18.8535156,9.6601562-33.9091797,28.7119141-44.7480469
		C460.6697998,443.6982727,470.7879639,440.6689758,476.3758545,439.2871399z M496.0311279,567.3018188l-18.4580078-0.3105469
		c-5.1669922-3.064209-8.4453125-8.9755859-9.4702148-16.9833984c1.715332-0.1333008,3.5727539-0.2539062,5.5424805-0.3493652
		c0.2836914-0.0134277,0.5654297-0.0270996,0.8544922-0.0393066c0.2426758-0.0107422,0.4853516-0.0214844,0.730957-0.03125
		c10.9741211-0.4221191,25.590332,0.0009766,38.0356445,3.7265625
		C508.2918701,559.859436,502.3280029,564.7197876,496.0311279,567.3018188z M492.5882568,583.1817017h-41.7915039v-7.2792969
		h41.7265625C492.5531006,578.2468872,492.5750732,580.6746216,492.5882568,583.1817017z M515.0906982,469.1719055
		c9.8378906,23.1171875,17.2675781,45.0508118,8.6875,77.3369446c-0.253418-0.1103516-0.5126953-0.2124023-0.7685547-0.3195801
		c-0.0180664-0.0078125-0.0327148-0.0205078-0.0507812-0.0280762c-0.144043-0.0603027-0.2915039-0.1152344-0.4360352-0.1743164
		c-0.3759766-0.1540527-0.7529297-0.3056641-1.1328125-0.453125c-0.2685547-0.1040039-0.5385742-0.2053223-0.809082-0.3061523
		c-0.3676758-0.1369629-0.7358398-0.2719727-1.1069336-0.4030762c-0.2880859-0.1018066-0.578125-0.2004395-0.8681641-0.2988281
		c-0.3598633-0.1218262-0.7202148-0.2424316-1.0830078-0.3588867c-0.3046875-0.0979004-0.6108398-0.1923828-0.9174805-0.2866211
		c-0.3554688-0.1091309-0.7114258-0.2175293-1.0693359-0.3217773c-0.3154297-0.092041-0.6328125-0.1806641-0.9501953-0.2687988
		c-0.355957-0.0991211-0.7119141-0.1975098-1.0698242-0.2919922c-0.3188477-0.0839844-0.6386719-0.1645508-0.9589844-0.2451172
		c-0.3632812-0.0913086-0.7265625-0.1821289-1.0917969-0.269043c-0.3115234-0.0742188-0.6240234-0.1450195-0.9365234-0.2158203
		c-0.3808594-0.0864258-0.7617188-0.1723633-1.144043-0.2539062c-0.2929688-0.0625-0.5864258-0.1220703-0.8798828-0.1818848
		c-0.4077148-0.083252-0.8154297-0.1655273-1.2241211-0.2436523c-0.2612305-0.0498047-0.5234375-0.0969238-0.7851562-0.1447754
		c-0.4487305-0.0820312-0.8974609-0.1630859-1.347168-0.2392578c-0.2099609-0.0354004-0.4194336-0.0688477-0.6293945-0.1030273
		c-0.5078125-0.0830078-1.015625-0.1640625-1.5244141-0.2397461c-0.1411133-0.0209961-0.2817383-0.0405273-0.4228516-0.0610352
		c-0.5834961-0.0849609-1.1665039-0.1662598-1.75-0.2421875c-0.0517578-0.0065918-0.1040039-0.0126953-0.1557617-0.0195312
		c-14.5302734-1.8696289-28.9477539-1.0307617-37.6767578-0.1430664c2.5957031-7.3222656,6.4619141-18.5957031,9.2421875-28.3066406
		c0.7607422-2.6543274-0.7753906-5.4228821-3.4306641-6.1826477c-2.6591797-0.7597656-5.4238281,0.7763672-6.1826172,3.4306641
		c-4.3574219,15.2187805-11.7246094,35.1133118-11.7978516,35.3125305c-0.6201172,1.6708984-0.3027344,3.546875,0.8320312,4.921875
		c1.1357422,1.375,2.9189453,2.0390625,4.6757812,1.75c0.0512695-0.0085449,0.6987305-0.112793,1.8286133-0.2670898
		c0.9819336,8.1003418,3.6845703,13.8237305,6.8076172,17.8481445h-17.6674805c-1.9326172,0-3.5,1.5673828-3.5,3.5v14.2792969
		c0,1.9326172,1.5673828,3.5,3.5,3.5h45.3037109c-0.0253906,14.1992188-0.3564453,30.512207-1.2568359,48.1210938
		c-10.4804688,2.7050781-43.0175781,10.3095703-68.734375,7.7998047l-0.6025391-29.3527832l38.1972656-113.8835754
		c0.3720703-1.1074219,0.34375-2.3095703-0.0791016-3.3984375l-7.6777344-19.7919922l18.5048828,1.5869141
		c2.3759766,0.2119141,4.5556641-1.2910156,5.2255859-3.5742188l11.4301758-38.9775391
		C497.7005615,441.2732239,507.9559326,452.4065247,515.0906982,469.1719055z M556.8504639,362.5713196
		c-2.7875977,30.1047363-31.546875,54.3659668-77.4814453,65.8613281c-0.0605469,0.0087891-0.1206055,0.0131836-0.1806641,0.0224609
		c-0.0048828,0.0007324-0.0087891,0.0029297-0.0136719,0.003418c-0.0112305,0.0019531-0.0219727,0.0014648-0.0332031,0.003418
		c-0.6787109,0.1123047-16.8027344,2.8505859-33.1269531,12.0703125
		c-22.2587891,12.5703125-34.0244141,31.0996094-34.0244141,53.5849609v115.5830383
		c-1.965332,0.0305176-3.8115234,0.0488281-4.8251953,0.0488281V494.117218c0-22.5419922-12.4960938-41.09375-36.1376953-53.6474609
		c-15.6513672-8.3120117-31.1118164-11.3300781-34.4306641-11.9094238
		c-1.7607422-0.3234863-2.2963867-0.3745117-3.9814453-0.5114746c-1.2421875-0.1015625-3.1201172-0.2548828-6.9892578-0.6572266
		c-55.3759766-5.7685547-77.8320312-37.2666016-80.3837891-64.8203125
		c-2.1894531-23.6435547,2.7832031-38.3320312,7.359375-48.4863281
		c7.265625-16.1181641,12.3916016-30.8945312,15.6689453-45.1699219c0.3691406-1.6005859,0.7978516-3.3017578,1.3134766-5.2001953
		c0.5439453-2.0087891-0.2128906-4.1445312-1.9003906-5.3632812c-0.6611328-0.4765625-1.3164062-0.9658203-1.9638672-1.4746094
		c-21.5683594-16.9443207-27.5107422-45.5009613-13.2470703-63.6581879
		c6.8183594-8.6796875,17.2460938-13.7412109,29.3632812-14.2539062c0.6816406-0.0292969,1.3623047-0.0429688,2.0439453-0.0429688
		c11.7470703,0,23.5957031,4.2539062,33.5810547,12.0986328c0.34375,0.2695312,0.6767578,0.5478516,1.0087891,0.8251953
		l0.2958984,0.2460938c1.5996094,1.3310547,3.8574219,1.5302734,5.6650391,0.5029297
		c21.7998047-12.3779297,49.0087891-19.1943359,76.6162109-19.1943359c27.6064453,0,54.8154297,6.8164062,76.6152344,19.1943359
		c1.8085938,1.0273438,4.0654297,0.8261719,5.6650391-0.5029297l0.2822266-0.2353516
		c0.3388672-0.2822266,0.6767578-0.5654297,1.0263672-0.8398438c21.5693359-16.9433594,50.7207031-15.9560547,64.9853516,2.2021484
		c14.2626953,18.1572266,8.3203125,46.7148438-13.2480469,63.6581879c-0.6484375,0.5087891-1.3046875,0.9990234-1.9658203,1.4765625
		c-1.6855469,1.21875-2.4414062,3.3535156-1.8974609,5.3613281c0.5166016,1.9033203,0.9453125,3.6035156,1.3115234,5.1972656
		c3.2802734,14.2832031,8.40625,29.0585938,15.6699219,45.1728516
		C554.0682373,324.2383118,559.039917,338.9248352,556.8504639,362.5713196z"/>
	<path class="st2" d="M513.2664795,553.3145142c-12.4453125-3.7255859-27.0615234-4.1486816-38.0356445-3.7265625
		c-0.2456055,0.0097656-0.4882812,0.0205078-0.730957,0.03125c-0.2890625,0.012207-0.5708008,0.0258789-0.8544922,0.0393066
		c-1.9697266,0.095459-3.8271484,0.2160645-5.5424805,0.3493652c0.2026367,1.5854492,0.4975586,3.0847168,0.8745117,4.5
		c13.4116211-3.8352051,27.2548828-2.3452148,39.487793,4.2700195
		C510.1414795,557.116272,511.7542725,555.3040161,513.2664795,553.3145142z"/>
	<path class="st2" d="M476.1776123,477.6885071c-0.6699219,2.2832031-2.8496094,3.7861328-5.2255859,3.5742188l-4.6533203-0.3989258
		v2.673584c3.5849609,0.1704102,8.2216797,0.8269043,11.2553711-0.4335938
		c3.2177734-1.3371582,3.6181641-5.8803711,4.1289062-8.8669434c1.2250977-7.1611328,0.9560547-14.4719238,1.8535156-21.642334
		L476.1776123,477.6885071z"/>
	<path class="st2" d="M472.1932373,509.2253723c0.2817383,0.9003906,0.3173828,1.888916,0.0380859,2.8635559
		c-2.7802734,9.7109375-6.6464844,20.984375-9.2421875,28.3066406c1.1708984-0.1191406,2.4516602-0.2365723,3.8139648-0.3476562
		c2.8046875-9.0263672,6.1450195-17.8859863,8.5014648-27.0510254
		C475.7366943,511.3161926,474.0965576,509.8747864,472.1932373,509.2253723z"/>
	<g>
		<path class="st11" d="M337.8319092,530.8135376c0-6.53125,4.9384766-12.1123047,11.2441406-12.7060547
			c0.40625-0.0380859,0.8115234-0.0576172,1.2138672-0.0576172c3.0996094,0,6.0263672,1.1289062,8.3486328,3.2421875
			c2.5878906,2.3564453,4.0722656,5.7099609,4.0722656,9.1992188v12.9433594h1.1464844V530.491272
			c0-6.0332031-4.0625-11.4003906-9.8789062-13.0527344c-1.6699219-0.4736328-2.7919922-1.9296875-2.7919922-3.6240234v-32.1963196
			h-1.8291016v32.1963196c0,1.6943359-1.1220703,3.1503906-2.7929688,3.6240234
			c-5.8154297,1.6523438-9.8789062,7.0195312-9.8789062,13.0527344v12.9433594h1.1464844V530.8135376z"/>
		<path class="st11" d="M463.4451904,575.3052368v-94.6870422h-1.8291016v94.6870422
			c0.3032227-0.0205078,0.6054688-0.0463867,0.9140625-0.0463867S463.1414795,575.284729,463.4451904,575.3052368z"/>
		<path class="st11" d="M462.5301514,578.1123657c-5.8496094,0-10.6083984,4.7597656-10.6083984,10.609375
			s4.7587891,10.6083984,10.6083984,10.6083984s10.609375-4.7587891,10.609375-10.6083984
			S468.3797607,578.1123657,462.5301514,578.1123657z M462.5301514,597.7324829
			c-4.9677734,0-9.0097656-4.0419922-9.0097656-9.0107422s4.0419922-9.0107422,9.0097656-9.0107422
			c4.96875,0,9.0107422,4.0419922,9.0107422,9.0107422S467.4989014,597.7324829,462.5301514,597.7324829z"/>
		<path d="M466.2987061,575.8057251v-96.6142883c0-0.7880859-0.6386719-1.4267578-1.4267578-1.4267578h-4.6826172
			c-0.7880859,0-1.4267578,0.6386719-1.4267578,1.4267578v96.6140442
			c-5.5932617,1.6347656-9.6943359,6.8012695-9.6943359,12.9162598c0,7.4228516,6.0390625,13.4619141,13.4619141,13.4619141
			c7.4238281,0,13.4628906-6.0390625,13.4628906-13.4619141
			C475.993042,582.6069946,471.8919678,577.4404907,466.2987061,575.8057251z M461.6160889,480.6181946h1.8291016v94.6870422
			c-0.3037109-0.0205078-0.6064453-0.0463867-0.9150391-0.0463867s-0.6108398,0.0258789-0.9140625,0.0463867V480.6181946z
			 M460.21521,577.0752563c0.4658203-0.0483398,0.9326172-0.0822754,1.4008789-0.1054688v0.0002441
			C461.1478271,576.9924927,460.6810303,577.0278931,460.21521,577.0752563
			c-0.0083008,0.0007324-0.0170898,0.0009766-0.0258789,0.0019531
			C460.1981201,577.0762329,460.2069092,577.0759888,460.21521,577.0752563z M462.5301514,599.3301392
			c-5.8496094,0-10.6083984-4.7587891-10.6083984-10.6083984s4.7587891-10.609375,10.6083984-10.609375
			s10.609375,4.7597656,10.609375,10.609375S468.3797607,599.3301392,462.5301514,599.3301392z"/>
		<path d="M461.6160889,576.9697876c-0.4682617,0.0231934-0.9350586,0.0571289-1.4008789,0.1054688
			c0.4658203-0.0473633,0.9326172-0.0827637,1.4008789-0.1052246V576.9697876z"/>
		<path class="st11" d="M462.5301514,580.7109985c-4.4169922,0-8.0097656,3.59375-8.0097656,8.0107422
			s3.5927734,8.0107422,8.0097656,8.0107422s8.0107422-3.59375,8.0107422-8.0107422
			S466.9471436,580.7109985,462.5301514,580.7109985z"/>
		<path d="M462.5301514,579.7109985c-4.9677734,0-9.0097656,4.0419922-9.0097656,9.0107422s4.0419922,9.0107422,9.0097656,9.0107422
			c4.96875,0,9.0107422-4.0419922,9.0107422-9.0107422S467.4989014,579.7109985,462.5301514,579.7109985z M462.5301514,596.7324829
			c-4.4169922,0-8.0097656-3.59375-8.0097656-8.0107422s3.5927734-8.0107422,8.0097656-8.0107422
			s8.0107422,3.59375,8.0107422,8.0107422S466.9471436,596.7324829,462.5301514,596.7324829z"/>
		<path class="st2" d="M356.0653076,554.6582642c0-2.7358398,1.5424805-5.1000977,3.7919922-6.3234863V530.491272
			c0-2.6884766-1.1445312-5.2714844-3.140625-7.0878906c-2.0205078-1.8408203-4.6367188-2.7099609-7.3730469-2.4541016
			c-4.8544922,0.4570312-8.6582031,4.7900391-8.6582031,9.8642578v17.5212402
			c2.2495117,1.2233887,3.7919922,3.5876465,3.7919922,6.3234863c0,2.0610352-0.8730469,3.918457-2.2626953,5.2348633
			c2.7827148-0.6906738,4.8720703-3.4760742,4.8720703-6.8022461c0-2.3105469-1.0371094-4.4628906-2.7392578-5.7548828v-13.9677734
			c0-3.6933594,2.3544922-6.8398438,5.3603516-7.1650391c1.6611328-0.1738281,3.2597656,0.4355469,4.4970703,1.7285156
			c1.2646484,1.3183594,1.9902344,3.203125,1.9902344,5.1699219v14.234375
			c-1.7021484,1.2919922-2.7392578,3.4443359-2.7392578,5.7548828c0,3.3261719,2.0893555,6.1115723,4.8720703,6.8022461
			C356.9383545,558.5767212,356.0653076,556.7192993,356.0653076,554.6582642z"/>
	</g>
	<path class="st2" d="M442.6951904,442.5075989c3.265625-4.0422363,5.7387695-8.0515137,6.7763672-11.0241699
		c0.8027344-2.2978516,0.734375-3.8984375-0.203125-4.7568359c-1.0957031-1.0019531-3.1425781-0.8076172-6.2558594,0.5917969
		c-0.6376953,0.1884766-10.8457031,3.1679688-28.8720703,6.5478516
		c-18.4541016,3.4589844-38.3330078-1.1230469-38.5322266-1.1689453l-0.1611328-0.0380859l-0.1523438,0.0654297
		c-1.4003906,0.609375-1.9824219,1.7207031-1.6376953,3.1289062c1.7402344,7.1171875,28.5742188,23.3105469,43.9238281,23.3085938
		c0.4707031,0,0.9326172-0.0146484,1.3818359-0.0458984c2.0219727-0.1411133,4.1645508-0.8039551,6.3408203-1.8342285
		C429.9344482,451.7739563,435.7489014,446.8269348,442.6951904,442.5075989z"/>
	<path class="st2" d="M265.7196045,256.8769836c0.6474609,0.5087891,1.3027344,0.9980469,1.9638672,1.4746094
		c1.6875,1.21875,2.4443359,3.3544922,1.9003906,5.3632812c-0.515625,1.8984375-0.9443359,3.5996094-1.3134766,5.2001953
		c-3.2773438,14.2753906-8.4033203,29.0517578-15.6689453,45.1699219
		c-4.5761719,10.1542969-9.5488281,24.8427734-7.359375,48.4863281
		c2.5517578,27.5537109,25.0078125,59.0517578,80.3837891,64.8203125c3.8691406,0.4023438,5.7470703,0.5556641,6.9892578,0.6572266
		c1.6850586,0.1369629,2.2207031,0.1879883,3.9814453,0.5114746c1.1425781,0.1994629,3.7255859,0.6882324,7.2597656,1.5827637
		c-0.3212891-0.2402344-0.6811523-0.4626465-1.0898438-0.6591797
		c-18.9345703-9.0961914-38.7177734-17.3120117-56.9423828-27.7739258
		c-15.3686523-8.8227539-26.5410156-22.8168945-30.1904297-40.3383789
		c-3.8891602-18.6696777,2.8837891-37.6176758,8.6381836-55.1430664c2.9155273-8.8789062,5.84375-17.793457,7.6948242-26.9682617
		c0.8491211-4.2106934,1.9189453-8.7512207,1.2216797-13.0463867c-0.7338867-4.5249023-3.425293-7.9064941-6.4702148-11.1777191
		c-13.6762695-14.6933594-20.0893555-33.7700195-17.4936523-53.7485352c0.1337891-1.029541,0.0249023-1.9143066-0.2553711-2.6640625
		C239.4720459,216.667038,246.1883545,241.5330048,265.7196045,256.8769836z"/>
	<path d="M446.9627075,341.6807556c-1.9140625-0.3837891-3.6425781,0.2099609-4.9042969,0.6435547l-0.2353516,0.0810547
		c-7.8300781,2.6748047-18.0166016,2.9414062-25.9550781,0.6796875c-5.8916016-1.6816406-10.3886719-3.4472656-11.9267578-4.40625
		l-0.1933594-4.7780762c9.5083008-0.871582,22.1264648-5.2053223,29.1738281-11.6557617
		c7.9106445-7.2409668,7.0317383-14.4821777,0-19.3093262c-7.0317383-4.8273926-19.5571289-8.4477539-32.5219727-8.4477539
		c-12.965332,0-25.4907227,3.6203613-32.5224609,8.4477539c-7.0317383,4.8271484-7.9106445,12.0683594,0,19.3093262
		c6.6074219,6.0478516,18.1113281,10.2319336,27.359375,11.4504395l-0.2016602,4.9833984
		c-1.5380859,0.9589844-6.0351562,2.7246094-11.9267578,4.40625c-7.9355469,2.2617188-18.125,1.9951172-25.9570312-0.6806641
		l-0.2333984-0.0800781c-1.2597656-0.4335938-2.9863281-1.0292969-4.9052734-0.6425781
		c-4.7236328,0.9511719-6.09375,6.2011719-5.3681641,10.6767578c2.5258789,15.5791016,13.7978516,24.4047852,32.6259766,25.6730957
		c0.0224609,0.003418,0.0424805,0.0124512,0.0654297,0.0153809c4.2177734,0.5488281,9.6445312,0.7275391,15.1494141,0.7275391
		c0.921875,0,1.8447266-0.0061035,2.765625-0.0151367c2.1210938,0.0546875,4.3032227,0.090332,6.4785156,0.090332
		c4.7724609,0,9.5083008-0.1708984,13.4833984-0.6801758c20.3378906-0.6318359,32.4829102-9.5517578,35.1191406-25.8110352
		C453.0574341,347.8829041,451.6873169,342.6329041,446.9627075,341.6807556z M423.6007996,351.275177
		c0.0233459,0.0648499,0.0293579,0.1365356,0.0189514,0.2049255c-0.0130615,0.0856018-0.0497437,0.165863-0.0922852,0.241272
		c-0.1744995,0.3094482-0.4506531,0.5518799-0.7540894,0.7366943c-1.1230164,0.684082-2.5430298,0.5747681-3.8107605,0.7272339
		c-2.0786438,0.2499695-4.1615295,0.4642944-6.2469788,0.6486206c-4.1509094,0.3669128-8.3122559,0.6165771-12.4766235,0.7645569
		c-7.0226135,0.2496033-14.0894775,0.2790527-21.099884-0.2658386c-1.8278198-0.1420593-3.6614685-0.3172607-5.4674377-0.6403503
		c-0.501709-0.0897827-2.6834717-0.2980957-2.9384766-0.8718872c-0.2695312-0.3955078-0.4355469-1.4091797-0.3574219-1.9951172
		c0.0498047-0.0058594,0.1054688-0.0117188,0.1689453-0.0166016c0.265625-0.0224609,0.5332031-0.0263672,0.7988281-0.0322266
		c0.921875-0.0185547,1.7978516-0.0898438,2.6464844-0.1601562c0.890625-0.0722656,1.7324219-0.1416016,2.5751953-0.1464844
		c11.6494141-0.0712891,19.5957031-4.8896179,22.7685547-7.2255554c0.2363281-0.1740112,3.2690125,1.5018616,3.6327209,1.6601868
		c1.7249451,0.7507935,3.4685059,1.4594116,5.2304688,2.1188049c1.2708435,0.4756165,6.9928589,2.0124207,8.2856445,2.4250793
		c1.210144,0.386261,6.9078369,1.5431519,7.0560303,1.7180481
		C423.565918,351.1985779,423.5865784,351.2355957,423.6007996,351.275177z M446.4431763,351.4034119
		c-2.1591797,13.3134766-12.1142578,20.3164062-29.5888672,20.8134766c-1.2470703,0.0351562-2.8066406,0.09375-4.5917969,0.1621094
		c-4.0869141,0.1547852-9.4570312,0.3562012-14.9086914,0.4140625c-3.5375977-0.092041-6.918457-0.2375488-9.784668-0.3623047
		c-2.0976562-0.0908203-3.9521484-0.171875-5.4472656-0.2138672c-17.4746094-0.4970703-27.4296875-7.5-29.5888672-20.8134766
		c-0.3388672-2.0927734,0.2314453-3.7880859,0.65625-3.8730469c0.3271484-0.0722656,1.1738281,0.2236328,1.7880859,0.4355469
		l0.2460938,0.0839844c3.0146484,1.0302734,6.2827148,1.7421875,9.6376953,2.1469727
		c0,0.0021973-0.0009766,0.0041504-0.0009766,0.0063477c-0.2802734,2.3447266,0.4716797,5.5019531,2.4492188,7.0009766
		c2.9970703,2.2695312,12.6113281,3.1083984,23.5224609,3.1083984c11.2138672,0,23.7978516-0.8867188,31.9609375-2.0175781
		c3.4013672-0.4716797,6.9238281-4.3745117,7.1972656-7.7609863c4.7827148-0.2084961,9.5214844-1.0349121,13.7607422-2.4831543
		l0.2480469-0.0849609c0.6152344-0.2119141,1.4580078-0.4980469,1.7871094-0.4365234
		C446.211731,347.6153259,446.7820435,349.3106384,446.4431763,351.4034119z"/>
	<path class="st0" d="M373.6716919,353.6922302c1.8061523,0.322998,3.6396484,0.498291,5.4672852,0.6403809
		c7.0107422,0.5449219,14.0776367,0.5153809,21.1000977,0.2658691c4.1640625-0.1479492,8.3256836-0.3977051,12.4765625-0.7646484
		c2.0854492-0.1843262,4.168457-0.3986816,6.2470703-0.6486816c1.2675781-0.1523438,2.6875-0.0429688,3.8105469-0.7270508
		c0.3037109-0.1848145,0.5795898-0.4272461,0.7543945-0.7368164c0.0424805-0.0754395,0.0791016-0.1557617,0.0922852-0.2412109
		c0.0102539-0.0683594,0.0043945-0.1401367-0.019043-0.2050781c-0.0141602-0.0395508-0.0351562-0.076416-0.0620117-0.1086426
		c-0.1484375-0.1750488-5.8461914-1.3317871-7.0561523-1.7180176c-1.2929688-0.4125977-7.0151367-1.9494629-8.2856445-2.4250488
		c-1.762207-0.6594238-3.5058594-1.3681641-5.2304688-2.1188965c-0.3637695-0.1582031-3.3964844-1.8342285-3.6328125-1.6601562
		c-3.1728516,2.3359375-11.1191406,7.1542969-22.7685547,7.2255859c-0.8427734,0.0048828-1.6845703,0.0742188-2.5751953,0.1464844
		c-0.8486328,0.0703125-1.7246094,0.1416016-2.6464844,0.1601562c-0.265625,0.0058594-0.5332031,0.0097656-0.7988281,0.0322266
		c-0.0634766,0.0048828-0.1191406,0.0107422-0.1689453,0.0166016c-0.078125,0.5859375,0.0878906,1.5996094,0.3574219,1.9951172
		C370.9880981,353.3941345,373.1697388,353.6026306,373.6716919,353.6922302z"/>
	<path class="st12" d="M427.3709106,370.903656c10.9780273-2.6289062,17.3930664-9.1472168,19.0722656-19.5002441
		c0.3388672-2.0927734-0.2314453-3.7880859-0.6572266-3.8740234c-0.3291016-0.0615234-1.171875,0.2246094-1.7871094,0.4365234
		l-0.2480469,0.0849609c-4.2392578,1.4482422-8.9780273,2.2746582-13.7607422,2.4831543
		c-0.2734375,3.3864746-3.7958984,7.2893066-7.1972656,7.7609863c-8.1630859,1.1308594-20.7470703,2.0175781-31.9609375,2.0175781
		c-10.9111328,0-20.5253906-0.8388672-23.5224609-3.1083984c-1.9775391-1.4990234-2.7294922-4.65625-2.4492188-7.0009766
		c0-0.0021973,0.0009766-0.0041504,0.0009766-0.0063477c-3.3549805-0.4047852-6.6230469-1.1166992-9.6376953-2.1469727
		l-0.2460938-0.0839844c-0.6142578-0.2119141-1.4609375-0.5078125-1.7880859-0.4355469
		c-0.4248047,0.0849609-0.9951172,1.7802734-0.65625,3.8730469c1.75,10.7915039,8.625,17.4345703,20.4726562,19.829834
		C377.8049927,367.7737732,397.1155396,356.3995056,427.3709106,370.903656z"/>
	<path class="st13" d="M387.5691528,372.4307556c2.8662109,0.1247559,6.2470703,0.2702637,9.784668,0.3623047
		c5.4516602-0.0578613,10.8217773-0.2592773,14.9086914-0.4140625c1.7851562-0.0683594,3.3447266-0.1269531,4.5917969-0.1621094
		c3.8857422-0.1105957,7.3774414-0.5615234,10.5166016-1.3132324c-30.2553711-14.5041504-49.565918-3.1298828-54.3652344,0.3295898
		c2.7685547,0.5595703,5.8061523,0.8894043,9.1162109,0.9836426
		C383.6170044,372.2588806,385.4714966,372.3399353,387.5691528,372.4307556z"/>
</g>
</svg>
