<svg width="28" height="18" viewBox="0 0 28 18" fill="none" xmlns="http://www.w3.org/2000/svg">
<path fill-rule="evenodd" clip-rule="evenodd" d="M-1.31134e-07 1.5C-5.87107e-08 0.671572 0.587626 5.13719e-08 1.3125 1.14742e-07L26.6875 2.3331e-06C27.4124 2.39647e-06 28 0.671575 28 1.5C28 2.32843 27.4124 3 26.6875 3L1.3125 3C0.587626 3 -2.03557e-07 2.32842 -1.31134e-07 1.5Z" fill="white"/>
<path fill-rule="evenodd" clip-rule="evenodd" d="M-1.31134e-07 16.5C-5.87107e-08 15.6716 0.587626 15 1.3125 15L26.6875 15C27.4124 15 28 15.6716 28 16.5C28 17.3284 27.4124 18 26.6875 18L1.3125 18C0.587626 18 -2.03557e-07 17.3284 -1.31134e-07 16.5Z" fill="white"/>
</svg>
