<svg width="36" height="36" viewBox="0 0 36 36" fill="none" xmlns="http://www.w3.org/2000/svg">
<path d="M25.5 3H10.5C8.85 3 7.5 4.35 7.5 6V9C7.5 10.65 8.85 12 10.5 12H25.5C27.15 12 28.5 10.65 28.5 9V6C28.5 4.35 27.15 3 25.5 3ZM25.5 9H10.5V6H25.5V9ZM30 33H6C4.35 33 3 31.65 3 30V28.5H33V30C33 31.65 31.65 33 30 33ZM27.795 15.285C27.315 14.205 26.235 13.5 25.05 13.5H10.95C9.765 13.5 8.685 14.205 8.205 15.285L3 27H33L27.795 15.285ZM14.25 24H12.75C12.33 24 12 23.67 12 23.25C12 22.83 12.33 22.5 12.75 22.5H14.25C14.67 22.5 15 22.83 15 23.25C15 23.67 14.67 24 14.25 24ZM14.25 21H12.75C12.33 21 12 20.67 12 20.25C12 19.83 12.33 19.5 12.75 19.5H14.25C14.67 19.5 15 19.83 15 20.25C15 20.67 14.67 21 14.25 21ZM14.25 18H12.75C12.33 18 12 17.67 12 17.25C12 16.83 12.33 16.5 12.75 16.5H14.25C14.67 16.5 15 16.83 15 17.25C15 17.67 14.67 18 14.25 18ZM18.75 24H17.25C16.83 24 16.5 23.67 16.5 23.25C16.5 22.83 16.83 22.5 17.25 22.5H18.75C19.17 22.5 19.5 22.83 19.5 23.25C19.5 23.67 19.17 24 18.75 24ZM18.75 21H17.25C16.83 21 16.5 20.67 16.5 20.25C16.5 19.83 16.83 19.5 17.25 19.5H18.75C19.17 19.5 19.5 19.83 19.5 20.25C19.5 20.67 19.17 21 18.75 21ZM18.75 18H17.25C16.83 18 16.5 17.67 16.5 17.25C16.5 16.83 16.83 16.5 17.25 16.5H18.75C19.17 16.5 19.5 16.83 19.5 17.25C19.5 17.67 19.17 18 18.75 18ZM23.25 24H21.75C21.33 24 21 23.67 21 23.25C21 22.83 21.33 22.5 21.75 22.5H23.25C23.67 22.5 24 22.83 24 23.25C24 23.67 23.67 24 23.25 24ZM23.25 21H21.75C21.33 21 21 20.67 21 20.25C21 19.83 21.33 19.5 21.75 19.5H23.25C23.67 19.5 24 19.83 24 20.25C24 20.67 23.67 21 23.25 21ZM23.25 18H21.75C21.33 18 21 17.67 21 17.25C21 16.83 21.33 16.5 21.75 16.5H23.25C23.67 16.5 24 16.83 24 17.25C24 17.67 23.67 18 23.25 18Z" fill="#976BD0"/>
</svg>
