<svg width="104" height="38" viewBox="0 0 104 38" fill="none" xmlns="http://www.w3.org/2000/svg">
<path d="M100.259 5.76441H102.915C103.361 5.76441 103.722 5.40309 103.722 4.95738C103.722 4.51166 103.361 4.15035 102.915 4.15035H100.259L101.973 2.43714C102.153 2.25705 102.153 1.96491 101.973 1.78506C101.793 1.60474 101.501 1.60474 101.321 1.78506L99.6073 3.49827V0.842675C99.6073 0.396963 99.2458 0.0356445 98.8003 0.0356445C98.3546 0.0356445 97.9932 0.396963 97.9932 0.842675V3.49827L96.2798 1.78506C96.0997 1.60474 95.8078 1.60474 95.6277 1.78506C95.4476 1.96491 95.4476 2.25705 95.6277 2.43714L97.3409 4.15035H94.6856C94.2401 4.15035 93.8785 4.51166 93.8785 4.95738C93.8785 5.40309 94.2401 5.76441 94.6856 5.76441H97.3412L95.6277 7.47785C95.4476 7.6577 95.4476 7.94984 95.6277 8.12993C95.7179 8.21985 95.8357 8.26505 95.9538 8.26505C96.0718 8.26505 96.1899 8.21985 96.2798 8.12993L97.9932 6.41672V9.07208C97.9932 9.51779 98.3546 9.87911 98.8003 9.87911C99.2458 9.87911 99.6073 9.51779 99.6073 9.07208V6.41672L101.321 8.12993C101.411 8.21985 101.529 8.26505 101.647 8.26505C101.765 8.26505 101.883 8.21985 101.973 8.12993C102.153 7.94984 102.153 7.6577 101.973 7.47785L100.259 5.76441Z" fill="#32DBDF"/>
<path d="M93.8836 1.95536C94.3457 1.95536 94.7217 1.5167 94.7217 0.977521C94.7217 0.438655 94.3457 0 93.8836 0C93.4214 0 93.0454 0.438655 93.0454 0.977521C93.0454 1.5167 93.4214 1.95536 93.8836 1.95536Z" fill="#32DBDF"/>
<path d="M93.7227 8.21484C93.2606 8.21484 92.8846 8.59083 92.8846 9.05299C92.8846 9.51487 93.2606 9.89086 93.7227 9.89086C94.1849 9.89086 94.5609 9.51487 94.5609 9.05299C94.5609 8.59083 94.1849 8.21484 93.7227 8.21484Z" fill="#32DBDF"/>
<path d="M102.884 1.95536C103.346 1.95536 103.722 1.5167 103.722 0.977521C103.722 0.438655 103.346 0 102.884 0C102.421 0 102.045 0.438655 102.045 0.977521C102.045 1.5167 102.421 1.95536 102.884 1.95536Z" fill="#32DBDF"/>
<path d="M102.723 8.21484C102.261 8.21484 101.885 8.59083 101.885 9.05299C101.885 9.51487 102.261 9.89086 102.723 9.89086C103.185 9.89086 103.561 9.51487 103.561 9.05299C103.561 8.59083 103.185 8.21484 102.723 8.21484Z" fill="#32DBDF"/>
<path fill-rule="evenodd" clip-rule="evenodd" d="M0 21.0667C0 16.6488 3.71674 13.0542 8.28527 13.0542C12.8538 13.0542 16.5705 16.6488 16.5705 21.0667C16.5705 25.4849 12.8538 29.0792 8.28527 29.0792C7.23326 29.0792 6.20491 28.8891 5.22835 28.5137L4.46429 28.2201V37.8754H0V21.0667ZM4.46429 21.0667C4.46429 23.1043 6.17835 24.7619 8.28527 24.7619C10.3922 24.7619 12.1063 23.1043 12.1063 21.0667C12.1063 19.0292 10.3922 17.3715 8.28527 17.3715C6.17835 17.3715 4.46429 19.0292 4.46429 21.0667Z" fill="white"/>
<path fill-rule="evenodd" clip-rule="evenodd" d="M19.0004 20.9185C19.0004 16.5524 22.725 13 27.3031 13C31.8813 13 35.6058 16.5524 35.6058 20.9185C35.6058 25.2848 31.8813 28.837 27.3031 28.837C22.725 28.837 19.0004 25.2848 19.0004 20.9185ZM23.4741 20.9185C23.4741 22.9322 25.1918 24.5703 27.3031 24.5703C29.4145 24.5703 31.1322 22.9322 31.1322 20.9185C31.1322 18.9049 29.4145 17.2667 27.3031 17.2667C25.1918 17.2667 23.4741 18.9049 23.4741 20.9185Z" fill="white"/>
<path fill-rule="evenodd" clip-rule="evenodd" d="M55.3031 12.1934C59.8784 12.1934 63.6014 15.9135 63.6058 20.4878L63.6054 20.4992L63.6126 21.0705V28.8292H59.1389V27.9049L58.373 28.2103C57.3926 28.6008 56.3598 28.7988 55.3031 28.7988C50.725 28.7988 47.0004 25.0742 47.0004 20.4961C47.0004 15.9181 50.725 12.1934 55.3031 12.1934ZM51.4741 20.4961C51.4741 22.6074 53.1918 24.3251 55.3031 24.3251C57.4145 24.3251 59.1322 22.6074 59.1322 20.4961C59.1322 18.3847 57.4145 16.667 55.3031 16.667C53.1918 16.667 51.4741 18.3847 51.4741 20.4961Z" fill="white"/>
<path d="M93.3031 24.743C91.1918 24.743 89.4741 23.088 89.4741 21.0538V13.0542H85.0004V21.0684C85.0085 25.4708 88.733 29.0533 93.3031 29.0533C94.3574 29.0533 95.3879 28.8635 96.3665 28.4887L97.1322 28.1956V37.8352H101.606V13.0542H97.1322L97.1315 21.0831C97.1038 23.115 95.397 24.743 93.3031 24.743Z" fill="white"/>
<rect x="38.9097" y="5.0249" width="4.8651" height="24.8622" fill="white"/>
<path d="M67.8031 20.208V28.7838H72.3193L72.3156 20.4435C72.3197 18.3362 74.0537 16.6216 76.181 16.6216C77.0303 16.6216 77.8375 16.8921 78.5041 17.3927L81.713 14.2137C80.1827 12.8776 78.2392 12.1479 76.181 12.1479C71.6425 12.1479 67.9332 15.7423 67.8031 20.208Z" fill="white"/>
</svg>
