<?xml version="1.0" encoding="UTF-8" standalone="no"?>
<!DOCTYPE svg PUBLIC "-//W3C//DTD SVG 1.1//EN" "http://www.w3.org/Graphics/SVG/1.1/DTD/svg11.dtd">
<svg width="100%" height="100%" viewBox="0 0 476 175" version="1.1" xmlns="http://www.w3.org/2000/svg" xmlns:xlink="http://www.w3.org/1999/xlink" xml:space="preserve" xmlns:serif="http://www.serif.com/" style="fill-rule:evenodd;clip-rule:evenodd;stroke-linejoin:round;stroke-miterlimit:2;">
    <g transform="matrix(1,0,0,1,-62.0334,-1232.5)">
        <g transform="matrix(1,0,0,1,0,1170)">
            <g id="Layer-3" serif:id="Layer 3">
                <g transform="matrix(1,0,0,1,522.426,80.8716)">
                    <path d="M0,7L11.518,7C13.45,7 15.018,5.433 15.018,3.5C15.018,1.567 13.45,0 11.518,0L0,0L7.431,-7.43C8.212,-8.211 8.212,-9.478 7.431,-10.258C6.649,-11.04 5.384,-11.04 4.603,-10.258L-2.828,-2.828L-2.828,-14.345C-2.828,-16.278 -4.396,-17.845 -6.328,-17.845C-8.261,-17.845 -9.828,-16.278 -9.828,-14.345L-9.828,-2.828L-17.259,-10.258C-18.04,-11.04 -19.306,-11.04 -20.087,-10.258C-20.868,-9.478 -20.868,-8.211 -20.087,-7.43L-12.657,0L-24.173,0C-26.105,0 -27.673,1.567 -27.673,3.5C-27.673,5.433 -26.105,7 -24.173,7L-12.656,7L-20.087,14.431C-20.868,15.211 -20.868,16.478 -20.087,17.259C-19.696,17.649 -19.185,17.845 -18.673,17.845C-18.161,17.845 -17.649,17.649 -17.259,17.259L-9.828,9.829L-9.828,21.345C-9.828,23.278 -8.261,24.845 -6.328,24.845C-4.396,24.845 -2.828,23.278 -2.828,21.345L-2.828,9.829L4.603,17.259C4.993,17.649 5.505,17.845 6.017,17.845C6.528,17.845 7.04,17.649 7.431,17.259C8.212,16.478 8.212,15.211 7.431,14.431L0,7Z" style="fill:rgb(230,250,255);fill-rule:nonzero;"/>
                </g>
                <g transform="matrix(1,0,0,1,497.331,62.503)">
                    <path d="M0,6.205C1.711,6.205 3.103,4.813 3.103,3.102C3.103,1.392 1.711,0 0,0C-1.711,0 -3.103,1.392 -3.103,3.102C-3.103,4.813 -1.711,6.205 0,6.205" style="fill:rgb(230,250,255);fill-rule:nonzero;"/>
                </g>
                <g transform="matrix(-1,0,0,1,497.331,106.241)">
                    <path d="M0,-6.205C1.711,-6.205 3.103,-4.813 3.103,-3.102C3.103,-1.392 1.711,0 0,0C-1.711,0 -3.103,-1.392 -3.103,-3.102C-3.103,-4.813 -1.711,-6.205 0,-6.205" style="fill:rgb(230,250,255);fill-rule:nonzero;"/>
                </g>
                <g transform="matrix(1,0,0,1,534.864,62.503)">
                    <path d="M0,6.205C1.711,6.205 3.103,4.813 3.103,3.102C3.103,1.392 1.711,0 0,0C-1.711,0 -3.103,1.392 -3.103,3.102C-3.103,4.813 -1.711,6.205 0,6.205" style="fill:rgb(230,250,255);fill-rule:nonzero;"/>
                </g>
                <g transform="matrix(-1,0,0,1,534.864,106.241)">
                    <path d="M0,-6.205C1.711,-6.205 3.103,-4.813 3.103,-3.102C3.103,-1.392 1.711,0 0,0C-1.711,0 -3.103,-1.392 -3.103,-3.102C-3.103,-4.813 -1.711,-6.205 0,-6.205" style="fill:rgb(230,250,255);fill-rule:nonzero;"/>
                </g>
                <g transform="matrix(1,0,0,1,99.1514,183.261)">
                    <path d="M0,-6.512C-9.439,-6.512 -17.118,-14.191 -17.118,-23.63C-17.118,-33.069 -9.439,-40.748 0,-40.748C9.439,-40.748 17.118,-33.069 17.118,-23.63C17.118,-14.191 9.439,-6.512 0,-6.512M0,-60.748C-20.467,-60.748 -37.118,-44.096 -37.118,-23.63L-37.118,54.236L-17.118,54.236L-17.118,9.508L-13.695,10.868C-9.32,12.607 -4.713,13.488 0,13.488C20.467,13.488 37.118,-3.163 37.118,-23.63C37.118,-44.096 20.467,-60.748 0,-60.748" style="fill:white;fill-rule:nonzero;"/>
                </g>
                <g transform="matrix(1,0,0,1,188.466,142.513)">
                    <path d="M0,34.236C-9.439,34.236 -17.118,26.557 -17.118,17.118C-17.118,7.679 -9.439,0 0,0C9.439,0 17.118,7.679 17.118,17.118C17.118,26.557 9.439,34.236 0,34.236M0,-20C-20.467,-20 -37.118,-3.348 -37.118,17.118C-37.118,37.585 -20.467,54.236 0,54.236C20.467,54.236 37.118,37.585 37.118,17.118C37.118,-3.348 20.467,-20 0,-20" style="fill:white;fill-rule:nonzero;"/>
                </g>
                <g transform="matrix(1,0,0,1,316.965,142.649)">
                    <path d="M0,34.1C-9.439,34.1 -17.118,26.421 -17.118,16.982C-17.118,7.543 -9.439,-0.136 0,-0.136C9.439,-0.136 17.118,7.543 17.118,16.982C17.118,26.421 9.439,34.1 0,34.1M37.118,16.945C37.098,-3.505 20.454,-20.136 0,-20.136C-20.467,-20.136 -37.118,-3.484 -37.118,16.982C-37.118,37.449 -20.467,54.1 0,54.1C4.724,54.1 9.341,53.215 13.724,51.469L17.148,50.104L17.148,54.236L37.148,54.236L37.148,19.55L37.116,16.996L37.118,16.945Z" style="fill:white;fill-rule:nonzero;"/>
                </g>
                <g transform="matrix(1,0,0,1,488.979,183.261)">
                    <path d="M0,-6.512C-9.439,-6.512 -17.118,-14.191 -17.118,-23.63L-17.118,-60.748L-37.118,-60.748L-37.118,-23.562C-37.082,-3.135 -20.431,13.488 0,13.488C4.713,13.488 9.32,12.607 13.695,10.868L17.118,9.508L17.118,54.236L37.118,54.236L37.118,-60.748L17.118,-60.748L17.115,-23.494C16.991,-14.066 9.361,-6.512 0,-6.512" style="fill:white;fill-rule:nonzero;"/>
                </g>
                <g transform="matrix(1,0,0,1,0,-21.404)">
                    <rect x="241.472" y="103.115" width="20" height="115.174" style="fill:white;"/>
                </g>
                <g transform="matrix(1,0,0,1,374.148,160.852)">
                    <path d="M0,-2.306L0,36.033L20,36.033L19.984,-1.253C20.002,-10.674 27.681,-18.339 37.102,-18.339C40.863,-18.339 44.438,-17.13 47.39,-14.892L61.601,-29.104C54.824,-35.077 46.217,-38.339 37.102,-38.339C17.003,-38.339 0.576,-22.27 0,-2.306" style="fill:white;fill-rule:nonzero;"/>
                </g>
            </g>
        </g>
    </g>
</svg>
