<svg width="128" height="128" viewBox="0 0 128 128" fill="#1BD1D599" xmlns="http://www.w3.org/2000/svg">
<path d="M82.5209 74.241H116.227C121.88 74.241 126.469 69.6553 126.469 63.9985C126.469 58.3418 121.88 53.7561 116.227 53.7561H82.5209L104.267 32.0128C106.552 29.7273 106.552 26.0195 104.267 23.7369C101.978 21.4484 98.2763 21.4484 95.9909 23.7369L74.2453 45.4802V11.7766C74.2453 6.11987 69.6568 1.53418 64.0031 1.53418C58.3465 1.53418 53.7609 6.11987 53.7609 11.7766V45.4802L32.0153 23.7369C29.7298 21.4484 26.0251 21.4484 23.7396 23.7369C21.4541 26.0195 21.4541 29.7273 23.7396 32.0128L45.4823 53.7561H11.7826C6.1289 53.7561 1.54041 58.3418 1.54041 63.9985C1.54041 69.6553 6.1289 74.241 11.7826 74.241H45.4852L23.7396 95.9871C21.4541 98.2698 21.4541 101.978 23.7396 104.263C24.8838 105.404 26.3792 105.978 27.8774 105.978C29.3757 105.978 30.874 105.404 32.0153 104.263L53.7609 82.5198V116.22C53.7609 121.877 58.3465 126.463 64.0031 126.463C69.6568 126.463 74.2453 121.877 74.2453 116.22V82.5198L95.9909 104.263C97.1321 105.404 98.6304 105.978 100.129 105.978C101.624 105.978 103.122 105.404 104.267 104.263C106.552 101.978 106.552 98.2698 104.267 95.9871L82.5209 74.241Z"/>
<path d="M9.08043 18.1584C14.0874 18.1584 18.1609 14.0848 18.1609 9.07774C18.1609 4.07357 14.0874 0 9.08043 0C4.07346 0 0 4.07357 0 9.07774C0 14.0848 4.07346 18.1584 9.08043 18.1584Z"/>
<path d="M9.08454 109.841C4.07757 109.841 0.00411224 113.915 0.00411224 118.922C0.00411224 123.926 4.07757 128 9.08454 128C14.0915 128 18.165 123.926 18.165 118.922C18.165 113.915 14.0915 109.841 9.08454 109.841Z"/>
<path d="M118.92 18.1623C123.926 18.1623 128 14.0887 128 9.08164C128 4.07748 123.926 0.00390625 118.92 0.00390625C113.913 0.00390625 109.839 4.07748 109.839 9.08164C109.839 14.0887 113.913 18.1623 118.92 18.1623Z"/>
<path d="M118.919 109.841C113.912 109.841 109.839 113.915 109.839 118.922C109.839 123.926 113.912 128 118.919 128C123.926 128 128 123.926 128 118.922C128 113.915 123.926 109.841 118.919 109.841Z"/>
</svg>
