<svg width="20" height="20" viewBox="0 0 20 20" fill="none" xmlns="http://www.w3.org/2000/svg">
<path fill-rule="evenodd" clip-rule="evenodd" d="M0.943328 1.17648C1.46435 0.661831 2.30909 0.661831 2.83011 1.17648L19.0564 17.2042C19.5775 17.7189 19.5775 18.5533 19.0564 19.0679C18.5354 19.5826 17.6907 19.5826 17.1697 19.0679L0.943328 3.04017C0.422307 2.52552 0.422307 1.69112 0.943328 1.17648Z" fill="#B4B4B4"/>
<path fill-rule="evenodd" clip-rule="evenodd" d="M19.0566 0.931923C19.5776 1.44657 19.5776 2.28097 19.0566 2.79562L2.83028 18.8234C2.30926 19.338 1.46452 19.338 0.9435 18.8234C0.42248 18.3087 0.42248 17.4743 0.943501 16.9597L17.1698 0.931923C17.6908 0.417278 18.5356 0.417278 19.0566 0.931923Z" fill="#B4B4B4"/>
</svg>
